<svg xmlns="http://www.w3.org/2000/svg" viewBox="0 0 264.17 205.58"><defs><style>.cls-1{fill:#425960;}.cls-2{fill:#ffcc3e;}.cls-3{fill:#ffe881;}.cls-4{fill:#fff;}</style></defs><g id="Layer_2" data-name="Layer 2"><g id="Layer_1-2" data-name="Layer 1"><rect class="cls-1" x="88.78" y="30.09" width="145.3" height="145.3" transform="translate(-25.37 144.24) rotate(-45)"/><polygon class="cls-2" points="102.8 205.58 160.9 205.38 58.2 102.58 0 102.78 102.8 205.58"/><polygon class="cls-3" points="58.2 103.18 0 102.98 102.8 0.18 160.9 0.38 58.2 103.18"/><path class="cls-4" d="M120.6,94.08a10.12,10.12,0,0,1-.24,2.31,4.53,4.53,0,0,1-.82,1.74A3.62,3.62,0,0,1,118,99.25a5.87,5.87,0,0,1-2.33.4c-.31,0-.63,0-1,0a5.09,5.09,0,0,1-1-.18L114,95.8a2.27,2.27,0,0,0,1.06.25,1.13,1.13,0,0,0,.82-.28,1.57,1.57,0,0,0,.44-.68,3.44,3.44,0,0,0,.16-.87c0-.31,0-.59,0-.85V79.84h4.09Zm-4.42-18.41a2.39,2.39,0,1,1,.7,1.67A2.26,2.26,0,0,1,116.18,75.67Z"/><path class="cls-4" d="M123,86.47a7,7,0,0,1,.57-2.86,6.46,6.46,0,0,1,1.57-2.2A6.91,6.91,0,0,1,127.48,80a8.71,8.71,0,0,1,5.76,0,7.05,7.05,0,0,1,2.35,1.41,6.74,6.74,0,0,1,1.57,2.2,7.49,7.49,0,0,1,0,5.73,6.8,6.8,0,0,1-1.57,2.19,7.05,7.05,0,0,1-2.35,1.41,8.71,8.71,0,0,1-5.76,0,6.91,6.91,0,0,1-2.34-1.41,6.52,6.52,0,0,1-1.57-2.19A7,7,0,0,1,123,86.47Zm4.09,0A3.41,3.41,0,0,0,128,88.9a3.6,3.6,0,0,0,4.83,0,3.86,3.86,0,0,0,0-4.86A3.6,3.6,0,0,0,128,84,3.41,3.41,0,0,0,127.09,86.47Z"/><path class="cls-4" d="M139.81,75.67a2.37,2.37,0,1,1,.69,1.67A2.29,2.29,0,0,1,139.81,75.67Zm.32,4.17h4.1V93.1h-4.1Z"/><path class="cls-4" d="M147.33,79.84h3.93v1.8h.06a3.24,3.24,0,0,1,.54-.76,3.85,3.85,0,0,1,.85-.68,5,5,0,0,1,1.12-.5,4.91,4.91,0,0,1,1.36-.19,5.61,5.61,0,0,1,2.51.48,3.68,3.68,0,0,1,1.49,1.32,5.52,5.52,0,0,1,.72,2,14.78,14.78,0,0,1,.19,2.48V93.1H156V86.61c0-.38,0-.78,0-1.19a3.66,3.66,0,0,0-.25-1.13,1.9,1.9,0,0,0-.62-.85,2,2,0,0,0-1.22-.33,2.53,2.53,0,0,0-1.28.29,2,2,0,0,0-.75.76,3.11,3.11,0,0,0-.34,1.08,8.52,8.52,0,0,0-.08,1.26v6.6h-4.1Z"/><path class="cls-4" d="M114.87,112.58h4.37l2.7,8.32h0l2.27-8.32h4.47l2.46,8.32h.05l2.49-8.32h4.14l-4.72,13.26h-4L126.36,117h-.06l-2.45,8.81h-4.12Z"/><path class="cls-4" d="M147.35,124.18h0a3.79,3.79,0,0,1-1.82,1.52,6.27,6.27,0,0,1-4.17.21,4.38,4.38,0,0,1-1.52-.78,3.69,3.69,0,0,1-1-1.28,3.85,3.85,0,0,1-.39-1.77,4,4,0,0,1,.43-1.94,3.79,3.79,0,0,1,1.14-1.31,5.62,5.62,0,0,1,1.65-.8,11,11,0,0,1,1.93-.43,18.84,18.84,0,0,1,2-.16l1.84,0a2.12,2.12,0,0,0-.78-1.73,2.79,2.79,0,0,0-1.84-.64,4,4,0,0,0-1.84.42,5,5,0,0,0-1.49,1.16l-2.18-2.24a7.36,7.36,0,0,1,2.67-1.59,9.47,9.47,0,0,1,3.17-.54,8.27,8.27,0,0,1,3,.45,4.31,4.31,0,0,1,1.85,1.33,5,5,0,0,1,1,2.14,14.15,14.15,0,0,1,.28,2.93v6.74h-3.77Zm-1-4.15c-.31,0-.69,0-1.16,0a6.59,6.59,0,0,0-1.34.23,3,3,0,0,0-1.09.58,1.31,1.31,0,0,0-.45,1.06,1.17,1.17,0,0,0,.63,1.09,2.61,2.61,0,0,0,1.31.36,4.07,4.07,0,0,0,1.16-.17,3.66,3.66,0,0,0,1-.46,2.22,2.22,0,0,0,.69-.77,2.2,2.2,0,0,0,.26-1.09V120Z"/><path class="cls-4" d="M153.62,108.41a2.29,2.29,0,0,1,.69-1.68,2.37,2.37,0,0,1,3.36,0,2.37,2.37,0,1,1-4,1.68Zm.33,4.17H158v13.26H154Z"/><path class="cls-4" d="M170,115.86h-3.61v4.42a7.52,7.52,0,0,0,.06,1,2.23,2.23,0,0,0,.24.78,1.22,1.22,0,0,0,.59.5,2.54,2.54,0,0,0,1.05.18,6.24,6.24,0,0,0,.86-.07,1.47,1.47,0,0,0,.81-.31v3.41a6.82,6.82,0,0,1-1.42.33,14.41,14.41,0,0,1-1.45.08,7.65,7.65,0,0,1-1.91-.22,4.29,4.29,0,0,1-1.53-.7,3.28,3.28,0,0,1-1-1.24,4.15,4.15,0,0,1-.37-1.85v-6.3h-2.62v-3.28h2.62v-3.93h4.09v3.93H170Z"/><path class="cls-4" d="M172.61,105.21h4.09v20.63h-4.09Z"/><path class="cls-4" d="M179.51,108.41a2.29,2.29,0,0,1,.69-1.68,2.37,2.37,0,0,1,3.36,0,2.37,2.37,0,1,1-4.05,1.68Zm.32,4.17h4.1v13.26h-4.1Z"/><path class="cls-4" d="M194.47,116.48a2.92,2.92,0,0,0-2.38-1.12,2.32,2.32,0,0,0-1,.25.88.88,0,0,0-.49.85.77.77,0,0,0,.51.72,6.91,6.91,0,0,0,1.28.41L194,118a6.49,6.49,0,0,1,1.67.64A3.74,3.74,0,0,1,197,119.8a3.51,3.51,0,0,1,.51,2,3.76,3.76,0,0,1-.56,2.12,4.36,4.36,0,0,1-1.44,1.33,5.87,5.87,0,0,1-2,.71,11.45,11.45,0,0,1-2.16.21,10.25,10.25,0,0,1-2.81-.4,5.29,5.29,0,0,1-2.4-1.4l2.49-2.76a4,4,0,0,0,1.26,1.08,3.41,3.41,0,0,0,1.63.37,3.7,3.7,0,0,0,1.28-.21.74.74,0,0,0,.57-.75.83.83,0,0,0-.5-.77,5.44,5.44,0,0,0-1.28-.44l-1.67-.38a6.75,6.75,0,0,1-1.66-.62,3.5,3.5,0,0,1-1.29-1.16,3.57,3.57,0,0,1-.5-2,4,4,0,0,1,.48-2,4.07,4.07,0,0,1,1.25-1.39,5.52,5.52,0,0,1,1.79-.81,8.29,8.29,0,0,1,2-.26,9.38,9.38,0,0,1,2.64.39A4.93,4.93,0,0,1,197,114Z"/><path class="cls-4" d="M208.8,115.86h-3.6v4.42a7.61,7.61,0,0,0,.05,1,2,2,0,0,0,.25.78,1.15,1.15,0,0,0,.58.5,2.57,2.57,0,0,0,1,.18,6.24,6.24,0,0,0,.86-.07,1.47,1.47,0,0,0,.81-.31v3.41a6.82,6.82,0,0,1-1.42.33,14.41,14.41,0,0,1-1.45.08A7.65,7.65,0,0,1,204,126a4.29,4.29,0,0,1-1.53-.7,3.28,3.28,0,0,1-1-1.24,4.15,4.15,0,0,1-.37-1.85v-6.3h-2.62v-3.28h2.62v-3.93h4.1v3.93h3.6Z"/></g></g></svg>