<svg version="1.1" xmlns="http://www.w3.org/2000/svg" xmlns:xlink="http://www.w3.org/1999/xlink" x="0px" y="0px" width="264.2px"
	 height="205.6px" viewBox="0 0 264.2 205.6" style="overflow:visible;enable-background:new 0 0 264.2 205.6;"
	 xml:space="preserve">
<style type="text/css">
	.st0{fill:#F5CD34;}
	.st1{fill:#FFE881;}
	.st2{fill:#425960;}
	.st3{fill:#47626D;}
</style>
<defs>
</defs>
<g id="Layer_1-2_1_">
	<g id="Layer_1-2-2_1_">
		
			<rect x="88.8" y="30.1" transform="matrix(0.7071 -0.7071 0.7071 0.7071 -25.3693 144.2383)" class="st0" width="145.3" height="145.3"/>
		<polygon class="st1" points="102.8,205.6 160.9,205.4 58.2,102.6 0,102.8 		"/>
		<polygon class="st2" points="58.2,103.2 0,103 102.8,0.2 160.9,0.4 		"/>
	</g>
</g>
<g>
	<path class="st3" d="M129.5,97h3.7v1.7h0.1c0.1-0.2,0.3-0.5,0.5-0.7c0.2-0.2,0.5-0.5,0.8-0.6c0.3-0.2,0.7-0.3,1.1-0.5
		c0.4-0.1,0.8-0.2,1.3-0.2c0.9,0,1.6,0.2,2.3,0.5c0.7,0.4,1.2,0.9,1.5,1.7c0.4-0.8,1-1.4,1.6-1.7c0.6-0.3,1.4-0.5,2.3-0.5
		c0.8,0,1.5,0.1,2.1,0.4s1,0.7,1.4,1.2c0.3,0.5,0.6,1.1,0.7,1.7c0.1,0.7,0.2,1.4,0.2,2.1v7.4h-3.9v-7.3c0-0.6-0.1-1.1-0.4-1.5
		c-0.2-0.4-0.7-0.6-1.3-0.6c-0.4,0-0.8,0.1-1.1,0.2s-0.5,0.3-0.7,0.6s-0.3,0.6-0.4,0.9s-0.1,0.7-0.1,1.1v6.6h-3.9v-6.6
		c0-0.2,0-0.5,0-0.8c0-0.3-0.1-0.6-0.2-0.9c-0.1-0.3-0.3-0.5-0.5-0.7c-0.2-0.2-0.6-0.3-1-0.3c-0.5,0-0.9,0.1-1.2,0.3
		c-0.3,0.2-0.5,0.4-0.7,0.7c-0.2,0.3-0.3,0.6-0.3,1c-0.1,0.4-0.1,0.8-0.1,1.2v6.2h-3.9V97z"/>
	<path class="st3" d="M163.7,107.3c-0.6,0.8-1.4,1.4-2.3,1.8s-1.9,0.6-2.9,0.6c-1,0-1.9-0.2-2.7-0.5c-0.8-0.3-1.6-0.7-2.2-1.3
		c-0.6-0.6-1.1-1.3-1.5-2.1c-0.4-0.8-0.5-1.7-0.5-2.7c0-1,0.2-1.9,0.5-2.7s0.9-1.5,1.5-2.1s1.4-1,2.2-1.3c0.8-0.3,1.8-0.5,2.7-0.5
		c0.9,0,1.7,0.2,2.4,0.5c0.7,0.3,1.3,0.7,1.8,1.3c0.5,0.6,0.9,1.3,1.2,2.1s0.4,1.7,0.4,2.7v1.2h-8.9c0.2,0.7,0.5,1.3,1,1.8
		s1.1,0.7,1.9,0.7c0.6,0,1.2-0.1,1.6-0.4s0.8-0.6,1.1-1.1L163.7,107.3z M160.4,101.8c0-0.7-0.2-1.2-0.6-1.7s-1-0.7-1.7-0.7
		c-0.4,0-0.8,0.1-1.1,0.2c-0.3,0.1-0.6,0.3-0.8,0.5s-0.4,0.5-0.5,0.7c-0.1,0.3-0.2,0.6-0.2,0.9H160.4z"/>
	<path class="st3" d="M166.6,97h3.7v1.7h0.1c0.1-0.2,0.3-0.5,0.5-0.7c0.2-0.2,0.5-0.5,0.8-0.6c0.3-0.2,0.7-0.3,1.1-0.5
		c0.4-0.1,0.8-0.2,1.3-0.2c1,0,1.8,0.1,2.4,0.4c0.6,0.3,1.1,0.7,1.4,1.2c0.3,0.5,0.6,1.2,0.7,1.9c0.1,0.7,0.2,1.5,0.2,2.3v6.9h-3.9
		v-6.1c0-0.4,0-0.7,0-1.1c0-0.4-0.1-0.7-0.2-1.1c-0.1-0.3-0.3-0.6-0.6-0.8c-0.3-0.2-0.6-0.3-1.1-0.3c-0.5,0-0.9,0.1-1.2,0.3
		c-0.3,0.2-0.5,0.4-0.7,0.7c-0.2,0.3-0.3,0.6-0.3,1c-0.1,0.4-0.1,0.8-0.1,1.2v6.2h-3.9V97z"/>
	<path class="st3" d="M193.3,109.5h-3.7v-1.7h-0.1c-0.1,0.2-0.3,0.5-0.5,0.7s-0.5,0.5-0.8,0.6c-0.3,0.2-0.7,0.3-1.1,0.5
		c-0.4,0.1-0.8,0.2-1.3,0.2c-1,0-1.8-0.2-2.4-0.5c-0.6-0.3-1.1-0.7-1.4-1.2c-0.3-0.5-0.6-1.2-0.7-1.9c-0.1-0.7-0.2-1.5-0.2-2.3V97
		h3.9v6.1c0,0.4,0,0.7,0,1.1c0,0.4,0.1,0.7,0.2,1.1c0.1,0.3,0.3,0.6,0.6,0.8c0.3,0.2,0.6,0.3,1.1,0.3c0.5,0,0.9-0.1,1.2-0.3
		c0.3-0.2,0.5-0.4,0.7-0.7c0.2-0.3,0.3-0.6,0.3-1c0.1-0.4,0.1-0.8,0.1-1.2V97h3.9V109.5z"/>
</g>
</svg>

