<svg xmlns="http://www.w3.org/2000/svg" viewBox="0 0 264.17 205.58"><defs><style>.cls-1{fill:#f5cd34;}.cls-2{fill:#ffe881;}.cls-3{fill:#425960;}.cls-4{fill:#47626d;}</style></defs><g id="Layer_2" data-name="Layer 2"><g id="Layer_1-2" data-name="Layer 1"><rect class="cls-1" x="88.78" y="30.09" width="145.3" height="145.3" transform="translate(-25.37 144.24) rotate(-45)"/><polygon class="cls-2" points="102.8 205.58 160.9 205.38 58.2 102.58 0 102.78 102.8 205.58"/><polygon class="cls-3" points="58.2 103.18 0 102.98 102.8 0.18 160.9 0.38 58.2 103.18"/><path class="cls-4" d="M110.78,91.76l7.5-6.74a12.8,12.8,0,0,0,1.15-1.17,2.27,2.27,0,0,0,.57-1.53,1.84,1.84,0,0,0-.71-1.54,2.62,2.62,0,0,0-1.66-.56,2.3,2.3,0,0,0-1.79.71,2.82,2.82,0,0,0-.72,1.75l-4.1-.3a6.86,6.86,0,0,1,.63-2.61,5.52,5.52,0,0,1,1.45-1.84,6.16,6.16,0,0,1,2.11-1.11,9.26,9.26,0,0,1,2.64-.36,8.11,8.11,0,0,1,2.45.36,5.59,5.59,0,0,1,2,1.1,4.88,4.88,0,0,1,1.33,1.81,6.26,6.26,0,0,1,.47,2.54A6.69,6.69,0,0,1,123.9,84a5.28,5.28,0,0,1-.53,1.36,6.06,6.06,0,0,1-.8,1.13,13.75,13.75,0,0,1-1,1l-5.87,5h8.57v3.6H110.78Z"/><path class="cls-4" d="M126.32,86.44a20,20,0,0,1,.32-3.49,10.16,10.16,0,0,1,1.12-3.22A6.6,6.6,0,0,1,130,77.37a7.38,7.38,0,0,1,7.1,0,6.69,6.69,0,0,1,2.19,2.36A10.16,10.16,0,0,1,140.36,83a19.8,19.8,0,0,1,0,7,10.07,10.07,0,0,1-1.12,3.22,6.61,6.61,0,0,1-2.19,2.36,7.31,7.31,0,0,1-7.1,0,6.52,6.52,0,0,1-2.19-2.36,10.07,10.07,0,0,1-1.12-3.22A19.87,19.87,0,0,1,126.32,86.44Zm4.1,0q0,.77.06,1.83a9.27,9.27,0,0,0,.37,2,4.33,4.33,0,0,0,.92,1.66,2.53,2.53,0,0,0,3.45,0,4.34,4.34,0,0,0,.93-1.66,8.72,8.72,0,0,0,.36-2c.05-.71.07-1.32.07-1.83s0-1.12-.07-1.83a8.55,8.55,0,0,0-.36-2,4.39,4.39,0,0,0-.93-1.67,2.53,2.53,0,0,0-3.45,0,4.37,4.37,0,0,0-.92,1.67,9.08,9.08,0,0,0-.37,2Q130.42,85.67,130.42,86.44Z"/><path class="cls-4" d="M149.28,83.69c.22-.06.44-.1.65-.14a3.87,3.87,0,0,1,.69,0,6.07,6.07,0,0,1,2.48.49A5.66,5.66,0,0,1,155,85.32a6,6,0,0,1,1.23,2,7,7,0,0,1,.43,2.47,6.29,6.29,0,0,1-.56,2.71,6.36,6.36,0,0,1-1.52,2.09,6.92,6.92,0,0,1-2.3,1.35,8.58,8.58,0,0,1-5.66,0,6.88,6.88,0,0,1-2.27-1.35,6.3,6.3,0,0,1-2.09-4.8,8.61,8.61,0,0,1,.19-1.9,10.19,10.19,0,0,1,.5-1.62,10.52,10.52,0,0,1,.74-1.46c.28-.47.58-.94.89-1.43l4.23-6.61h5Zm3.3,5.94a2.93,2.93,0,0,0-.86-2.16,3.37,3.37,0,0,0-4.5,0,3.16,3.16,0,0,0,0,4.33,3.37,3.37,0,0,0,4.5,0A2.94,2.94,0,0,0,152.58,89.63Z"/><path class="cls-4" d="M174.76,92.23h-8.43V88.79l7.89-12h4.47v12h2.48v3.44h-2.48V96.1h-3.93Zm0-10.1h0l-4.29,6.66h4.34Z"/><path class="cls-4" d="M196,80.38H188.3l-.08,3a5.21,5.21,0,0,1,1.71-.22,8.06,8.06,0,0,1,2.71.44,5.93,5.93,0,0,1,2.11,1.27,5.67,5.67,0,0,1,1.38,2,7,7,0,0,1,.49,2.66,7.23,7.23,0,0,1-.56,2.91,6.21,6.21,0,0,1-1.54,2.17A6.43,6.43,0,0,1,192.19,96a9,9,0,0,1-2.94.47,7,7,0,0,1-4.2-1.23,6.3,6.3,0,0,1-2.32-3.71l4.28-1a2.76,2.76,0,0,0,.88,1.68,2.56,2.56,0,0,0,1.77.64,2.78,2.78,0,0,0,2.09-.82,2.9,2.9,0,0,0,.78-2.08,2.84,2.84,0,0,0-.4-1.56,3,3,0,0,0-1-1,4.33,4.33,0,0,0-1.43-.5,9.37,9.37,0,0,0-1.58-.14,11.71,11.71,0,0,0-2,.19,13.67,13.67,0,0,0-2,.52l.22-10.67H196Z"/><path class="cls-4" d="M207.81,80.55h-9.55V76.78H212.4v3.6L204.68,96.1H199.9Z"/><path class="cls-4" d="M131.35,114.52a5.24,5.24,0,0,1,.5-2.34,4.85,4.85,0,0,1,1.39-1.66,6.08,6.08,0,0,1,2.06-1,10,10,0,0,1,5,0,5.86,5.86,0,0,1,2.05,1,4.81,4.81,0,0,1,1.91,4,4.34,4.34,0,0,1-.86,2.7A4.63,4.63,0,0,1,141,118.8v0a4.54,4.54,0,0,1,3.6,4.7,5.21,5.21,0,0,1-.56,2.45,5,5,0,0,1-1.5,1.76,6.54,6.54,0,0,1-2.17,1,9.32,9.32,0,0,1-5.13,0,6.54,6.54,0,0,1-2.17-1,5,5,0,0,1-1.5-1.76,5.21,5.21,0,0,1-.56-2.45,4.54,4.54,0,0,1,3.6-4.7v0a4.59,4.59,0,0,1-2.41-1.58A4.28,4.28,0,0,1,131.35,114.52Zm3.76,8.45a2.29,2.29,0,0,0,.74,1.72,3.07,3.07,0,0,0,3.93,0,2.29,2.29,0,0,0,.74-1.72,2.32,2.32,0,0,0-.74-1.74,3.07,3.07,0,0,0-3.93,0A2.32,2.32,0,0,0,135.11,123Zm.33-7.88a2.06,2.06,0,0,0,.65,1.53,2.66,2.66,0,0,0,3.44,0,2,2,0,0,0,.66-1.53,2,2,0,0,0-.66-1.5,2.66,2.66,0,0,0-3.44,0A2,2,0,0,0,135.44,115.09Z"/><path class="cls-4" d="M146.84,124.5l7.51-6.74a12.75,12.75,0,0,0,1.14-1.17,2.23,2.23,0,0,0,.58-1.53,1.86,1.86,0,0,0-.71-1.54,2.65,2.65,0,0,0-1.67-.56,2.28,2.28,0,0,0-1.78.71,2.89,2.89,0,0,0-.73,1.75l-4.09-.3a6.68,6.68,0,0,1,.63-2.61,5.37,5.37,0,0,1,1.44-1.84,6.21,6.21,0,0,1,2.12-1.11,9.24,9.24,0,0,1,2.63-.36,8.22,8.22,0,0,1,2.46.36,5.93,5.93,0,0,1,2,1.1,5,5,0,0,1,1.32,1.81,6.26,6.26,0,0,1,.48,2.54,6.69,6.69,0,0,1-.19,1.68,5.71,5.71,0,0,1-1.34,2.49,13.75,13.75,0,0,1-1,1l-5.86,5h8.56v3.6H146.84Z"/><path class="cls-4" d="M163,114.52a5.24,5.24,0,0,1,.5-2.34,4.85,4.85,0,0,1,1.39-1.66,6.08,6.08,0,0,1,2.06-1,10,10,0,0,1,5,0,5.94,5.94,0,0,1,2.05,1,4.81,4.81,0,0,1,1.91,4,4.34,4.34,0,0,1-.86,2.7,4.63,4.63,0,0,1-2.41,1.58v0a4.54,4.54,0,0,1,3.6,4.7,5.21,5.21,0,0,1-.56,2.45,5,5,0,0,1-1.5,1.76,6.54,6.54,0,0,1-2.17,1,9.32,9.32,0,0,1-5.13,0,6.54,6.54,0,0,1-2.17-1,5,5,0,0,1-1.5-1.76,5.21,5.21,0,0,1-.56-2.45,4.54,4.54,0,0,1,3.6-4.7v0a4.59,4.59,0,0,1-2.41-1.58A4.28,4.28,0,0,1,163,114.52Zm3.76,8.45a2.29,2.29,0,0,0,.74,1.72,3.07,3.07,0,0,0,3.93,0,2.29,2.29,0,0,0,.74-1.72,2.32,2.32,0,0,0-.74-1.74,3.07,3.07,0,0,0-3.93,0A2.32,2.32,0,0,0,166.74,123Zm.33-7.88a2.06,2.06,0,0,0,.65,1.53,2.66,2.66,0,0,0,3.44,0,2,2,0,0,0,.66-1.53,2,2,0,0,0-.66-1.5,2.66,2.66,0,0,0-3.44,0A2,2,0,0,0,167.07,115.09Z"/><path class="cls-4" d="M187.52,113.29H178v-3.77H192.1v3.61l-7.72,15.71h-4.77Z"/></g></g></svg>