<!-- Generator: Adobe Illustrator 24.3.0, SVG Export Plug-In  -->
<svg version="1.1" xmlns="http://www.w3.org/2000/svg" xmlns:xlink="http://www.w3.org/1999/xlink" x="0px" y="0px" width="264.2px"
	 height="205.6px" viewBox="0 0 264.2 205.6" style="overflow:visible;enable-background:new 0 0 264.2 205.6;"
	 xml:space="preserve">
<style type="text/css">
	.st0{fill:#425960;}
	.st1{fill:#F5CD34;}
	.st2{fill:#FFE881;}
	.st3{fill:#FFFFFF;}
</style>
<defs>
</defs>
<rect x="88.8" y="30.1" transform="matrix(0.7071 -0.7071 0.7071 0.7071 -25.3693 144.2383)" class="st0" width="145.3" height="145.3"/>
<polygon class="st1" points="102.8,205.6 160.9,205.4 58.2,102.6 0,102.8 "/>
<polygon class="st2" points="58.2,103.2 0,103 102.8,0.2 160.9,0.4 "/>
<path class="st3" d="M108,96.2c0-0.8,0.1-1.5,0.4-2.2c0.3-0.6,0.7-1.2,1.2-1.7c0.5-0.5,1.1-0.8,1.8-1.1c0.7-0.2,1.4-0.4,2.2-0.4
	c0.8,0,1.5,0.1,2.2,0.4c0.7,0.2,1.3,0.6,1.8,1.1c0.5,0.5,0.9,1,1.2,1.7c0.3,0.6,0.4,1.4,0.4,2.2c0,0.8-0.1,1.5-0.4,2.2
	c-0.3,0.6-0.7,1.2-1.2,1.7c-0.5,0.5-1.1,0.8-1.8,1.1c-0.7,0.2-1.4,0.4-2.2,0.4c-0.8,0-1.5-0.1-2.2-0.4c-0.7-0.2-1.3-0.6-1.8-1.1
	c-0.5-0.5-0.9-1-1.2-1.7C108.1,97.7,108,97,108,96.2z M111.1,96.2c0,0.8,0.2,1.4,0.7,1.8c0.4,0.5,1,0.7,1.8,0.7s1.4-0.2,1.8-0.7
	c0.4-0.5,0.7-1.1,0.7-1.8c0-0.8-0.2-1.4-0.7-1.8c-0.4-0.5-1-0.7-1.8-0.7s-1.4,0.2-1.8,0.7C111.3,94.8,111.1,95.5,111.1,96.2z"/>
<path class="st3" d="M121.4,91.2h3.1v1.6h0c0.3-0.6,0.7-1.1,1.2-1.4c0.5-0.3,1-0.5,1.7-0.5c0.2,0,0.4,0,0.5,0c0.2,0,0.3,0,0.5,0.1
	v2.8c-0.2-0.1-0.4-0.1-0.7-0.2c-0.2,0-0.4-0.1-0.7-0.1c-0.6,0-1.1,0.1-1.4,0.2c-0.3,0.2-0.6,0.4-0.8,0.7s-0.3,0.7-0.4,1.1
	c-0.1,0.4-0.1,0.9-0.1,1.4v4.2h-3.1V91.2z"/>
<path class="st3" d="M140.8,101.2H138v-1.3h0c-0.1,0.2-0.3,0.4-0.5,0.5s-0.4,0.4-0.7,0.5c-0.3,0.2-0.6,0.3-0.9,0.4
	c-0.3,0.1-0.7,0.1-1,0.1c-0.7,0-1.4-0.1-2-0.4c-0.6-0.3-1.1-0.6-1.6-1.1c-0.4-0.5-0.8-1-1-1.6c-0.2-0.6-0.4-1.3-0.4-2.1
	c0-0.7,0.1-1.4,0.3-2c0.2-0.6,0.5-1.2,0.9-1.7c0.4-0.5,0.9-0.9,1.4-1.2c0.6-0.3,1.2-0.4,1.9-0.4c0.6,0,1.3,0.1,1.8,0.3
	c0.6,0.2,1,0.5,1.4,1h0v-6.7h3.1V101.2z M138,96.2c0-0.8-0.2-1.4-0.7-1.8c-0.4-0.5-1-0.7-1.8-0.7c-0.8,0-1.4,0.2-1.8,0.7
	c-0.4,0.5-0.7,1.1-0.7,1.8c0,0.8,0.2,1.4,0.7,1.8c0.4,0.5,1,0.7,1.8,0.7c0.8,0,1.4-0.2,1.8-0.7C137.8,97.6,138,97,138,96.2z"/>
<path class="st3" d="M153.1,99.5c-0.5,0.6-1.1,1.1-1.9,1.5c-0.8,0.3-1.5,0.5-2.4,0.5c-0.8,0-1.5-0.1-2.2-0.4
	c-0.7-0.2-1.3-0.6-1.8-1.1c-0.5-0.5-0.9-1-1.2-1.7c-0.3-0.6-0.4-1.4-0.4-2.2c0-0.8,0.1-1.5,0.4-2.2c0.3-0.6,0.7-1.2,1.2-1.7
	c0.5-0.5,1.1-0.8,1.8-1.1c0.7-0.2,1.4-0.4,2.2-0.4c0.7,0,1.4,0.1,2,0.4c0.6,0.2,1.1,0.6,1.5,1.1c0.4,0.5,0.7,1,0.9,1.7
	c0.2,0.6,0.3,1.4,0.3,2.2v1h-7.2c0.1,0.6,0.4,1.1,0.8,1.4c0.4,0.4,0.9,0.5,1.5,0.5c0.5,0,0.9-0.1,1.3-0.3c0.4-0.2,0.7-0.5,0.9-0.9
	L153.1,99.5z M150.5,95.1c0-0.5-0.2-1-0.5-1.3c-0.4-0.4-0.8-0.6-1.4-0.6c-0.3,0-0.6,0.1-0.9,0.2c-0.3,0.1-0.5,0.3-0.7,0.4
	c-0.2,0.2-0.3,0.4-0.4,0.6c-0.1,0.2-0.2,0.5-0.2,0.7H150.5z"/>
<path class="st3" d="M155.9,91.2h3.1v1.6h0c0.3-0.6,0.7-1.1,1.2-1.4c0.5-0.3,1-0.5,1.7-0.5c0.2,0,0.4,0,0.5,0c0.2,0,0.3,0,0.5,0.1
	v2.8c-0.2-0.1-0.4-0.1-0.7-0.2c-0.2,0-0.4-0.1-0.7-0.1c-0.6,0-1.1,0.1-1.4,0.2c-0.3,0.2-0.6,0.4-0.8,0.7c-0.2,0.3-0.3,0.7-0.4,1.1
	c-0.1,0.4-0.1,0.9-0.1,1.4v4.2h-3.1V91.2z"/>
<path class="st3" d="M172.4,93.7h-2v-2.5h2v-1.8c0-0.6,0-1.1,0.1-1.6c0.1-0.5,0.3-0.9,0.6-1.3c0.3-0.4,0.7-0.7,1.2-0.9
	c0.5-0.2,1.2-0.3,2-0.3c0.3,0,0.6,0,0.9,0c0.3,0,0.6,0.1,0.9,0.1l-0.1,2.6c-0.2-0.1-0.3-0.1-0.5-0.2c-0.2,0-0.3-0.1-0.5-0.1
	c-0.5,0-0.9,0.1-1.1,0.3c-0.2,0.2-0.4,0.7-0.4,1.3v1.6h2.3v2.5h-2.3v7.6h-3.1V93.7z"/>
<path class="st3" d="M179.1,96.2c0-0.8,0.1-1.5,0.4-2.2c0.3-0.6,0.7-1.2,1.2-1.7c0.5-0.5,1.1-0.8,1.8-1.1c0.7-0.2,1.4-0.4,2.2-0.4
	c0.8,0,1.5,0.1,2.2,0.4c0.7,0.2,1.3,0.6,1.8,1.1c0.5,0.5,0.9,1,1.2,1.7c0.3,0.6,0.4,1.4,0.4,2.2c0,0.8-0.1,1.5-0.4,2.2
	c-0.3,0.6-0.7,1.2-1.2,1.7c-0.5,0.5-1.1,0.8-1.8,1.1c-0.7,0.2-1.4,0.4-2.2,0.4c-0.8,0-1.5-0.1-2.2-0.4c-0.7-0.2-1.3-0.6-1.8-1.1
	c-0.5-0.5-0.9-1-1.2-1.7C179.2,97.7,179.1,97,179.1,96.2z M182.2,96.2c0,0.8,0.2,1.4,0.7,1.8c0.4,0.5,1,0.7,1.8,0.7
	c0.8,0,1.4-0.2,1.8-0.7c0.4-0.5,0.7-1.1,0.7-1.8c0-0.8-0.2-1.4-0.7-1.8c-0.4-0.5-1-0.7-1.8-0.7c-0.8,0-1.4,0.2-1.8,0.7
	S182.2,95.5,182.2,96.2z"/>
<path class="st3" d="M192,96.2c0-0.8,0.1-1.5,0.4-2.2c0.3-0.6,0.7-1.2,1.2-1.7c0.5-0.5,1.1-0.8,1.8-1.1c0.7-0.2,1.4-0.4,2.2-0.4
	c0.8,0,1.5,0.1,2.2,0.4c0.7,0.2,1.3,0.6,1.8,1.1c0.5,0.5,0.9,1,1.2,1.7c0.3,0.6,0.4,1.4,0.4,2.2c0,0.8-0.1,1.5-0.4,2.2
	c-0.3,0.6-0.7,1.2-1.2,1.7c-0.5,0.5-1.1,0.8-1.8,1.1c-0.7,0.2-1.4,0.4-2.2,0.4c-0.8,0-1.5-0.1-2.2-0.4c-0.7-0.2-1.3-0.6-1.8-1.1
	c-0.5-0.5-0.9-1-1.2-1.7C192.2,97.7,192,97,192,96.2z M195.1,96.2c0,0.8,0.2,1.4,0.7,1.8c0.4,0.5,1,0.7,1.8,0.7s1.4-0.2,1.8-0.7
	c0.4-0.5,0.7-1.1,0.7-1.8c0-0.8-0.2-1.4-0.7-1.8s-1-0.7-1.8-0.7s-1.4,0.2-1.8,0.7C195.4,94.8,195.1,95.5,195.1,96.2z"/>
<path class="st3" d="M216,101.2h-2.9v-1.3h0c-0.1,0.2-0.3,0.4-0.5,0.5s-0.4,0.4-0.7,0.5c-0.3,0.2-0.6,0.3-0.9,0.4s-0.7,0.1-1,0.1
	c-0.7,0-1.4-0.1-2-0.4c-0.6-0.3-1.1-0.6-1.6-1.1c-0.4-0.5-0.8-1-1-1.6c-0.2-0.6-0.4-1.3-0.4-2.1c0-0.7,0.1-1.4,0.3-2
	c0.2-0.6,0.5-1.2,0.9-1.7s0.9-0.9,1.4-1.2c0.6-0.3,1.2-0.4,1.9-0.4c0.6,0,1.3,0.1,1.8,0.3c0.6,0.2,1,0.5,1.4,1h0v-6.7h3.1V101.2z
	 M213.1,96.2c0-0.8-0.2-1.4-0.7-1.8s-1-0.7-1.8-0.7s-1.4,0.2-1.8,0.7c-0.4,0.5-0.7,1.1-0.7,1.8c0,0.8,0.2,1.4,0.7,1.8
	c0.4,0.5,1,0.7,1.8,0.7s1.4-0.2,1.8-0.7C212.9,97.6,213.1,97,213.1,96.2z"/>
<path class="st3" d="M143.5,118.5h-2.7v3.4c0,0.3,0,0.5,0,0.8c0,0.2,0.1,0.4,0.2,0.6c0.1,0.2,0.2,0.3,0.4,0.4
	c0.2,0.1,0.5,0.1,0.8,0.1c0.2,0,0.4,0,0.7-0.1c0.3,0,0.5-0.1,0.6-0.2v2.6c-0.3,0.1-0.7,0.2-1.1,0.2c-0.4,0-0.7,0.1-1.1,0.1
	c-0.5,0-1-0.1-1.4-0.2c-0.4-0.1-0.8-0.3-1.2-0.5c-0.3-0.2-0.6-0.6-0.8-0.9s-0.3-0.9-0.3-1.4v-4.8h-2V116h2v-3h3.1v3h2.7V118.5z"/>
<path class="st3" d="M145.1,121c0-0.8,0.1-1.5,0.4-2.2s0.7-1.2,1.2-1.7c0.5-0.5,1.1-0.8,1.8-1.1c0.7-0.2,1.4-0.4,2.2-0.4
	c0.8,0,1.5,0.1,2.2,0.4c0.7,0.2,1.3,0.6,1.8,1.1c0.5,0.5,0.9,1,1.2,1.7c0.3,0.6,0.4,1.4,0.4,2.2c0,0.8-0.1,1.5-0.4,2.2
	c-0.3,0.6-0.7,1.2-1.2,1.7c-0.5,0.5-1.1,0.8-1.8,1.1c-0.7,0.2-1.4,0.4-2.2,0.4c-0.8,0-1.5-0.1-2.2-0.4c-0.7-0.2-1.3-0.6-1.8-1.1
	c-0.5-0.5-0.9-1-1.2-1.7C145.3,122.6,145.1,121.8,145.1,121z M148.2,121c0,0.8,0.2,1.4,0.7,1.8s1,0.7,1.8,0.7c0.8,0,1.4-0.2,1.8-0.7
	c0.4-0.5,0.7-1.1,0.7-1.8c0-0.8-0.2-1.4-0.7-1.8c-0.4-0.5-1-0.7-1.8-0.7c-0.8,0-1.4,0.2-1.8,0.7C148.4,119.7,148.2,120.3,148.2,121z
	"/>
<path class="st3" d="M174.7,125.2c0,1.9-0.5,3.3-1.4,4.3c-1,1-2.4,1.5-4.4,1.5c-0.9,0-1.8-0.1-2.6-0.3c-0.9-0.2-1.7-0.6-2.4-1.2
	l1.7-2.6c0.5,0.4,1,0.7,1.5,1c0.5,0.2,1.1,0.4,1.7,0.4c1,0,1.7-0.2,2.1-0.7s0.7-1.1,0.7-1.8v-1h0c-0.4,0.5-0.8,0.8-1.3,1
	c-0.5,0.2-1,0.3-1.5,0.3c-0.7,0-1.4-0.1-2-0.4c-0.6-0.3-1.1-0.6-1.6-1.1c-0.4-0.5-0.8-1-1-1.6c-0.2-0.6-0.4-1.3-0.4-2.1
	c0-0.7,0.1-1.3,0.3-1.9c0.2-0.6,0.5-1.2,0.9-1.7c0.4-0.5,0.9-0.9,1.4-1.2c0.6-0.3,1.2-0.4,1.9-0.4c0.4,0,0.8,0,1.2,0.1
	c0.4,0.1,0.7,0.2,1,0.4c0.3,0.2,0.5,0.3,0.7,0.5c0.2,0.2,0.4,0.4,0.5,0.5h0V116h2.9V125.2z M166.9,121c0,0.3,0.1,0.6,0.2,0.9
	c0.1,0.3,0.3,0.6,0.5,0.8c0.2,0.2,0.5,0.4,0.8,0.5c0.3,0.1,0.6,0.2,1,0.2c0.3,0,0.7-0.1,1-0.2c0.3-0.1,0.6-0.3,0.8-0.5
	c0.2-0.2,0.4-0.5,0.5-0.8c0.1-0.3,0.2-0.6,0.2-0.9c0-0.3-0.1-0.6-0.2-0.9c-0.1-0.3-0.3-0.6-0.5-0.8c-0.2-0.2-0.5-0.4-0.8-0.5
	c-0.3-0.1-0.6-0.2-1-0.2c-0.4,0-0.7,0.1-1,0.2c-0.3,0.1-0.6,0.3-0.8,0.5c-0.2,0.2-0.4,0.5-0.5,0.8C167,120.3,166.9,120.7,166.9,121z
	"/>
<path class="st3" d="M177.2,121c0-0.8,0.1-1.5,0.4-2.2s0.7-1.2,1.2-1.7s1.1-0.8,1.8-1.1c0.7-0.2,1.4-0.4,2.2-0.4
	c0.8,0,1.5,0.1,2.2,0.4c0.7,0.2,1.3,0.6,1.8,1.1c0.5,0.5,0.9,1,1.2,1.7c0.3,0.6,0.4,1.4,0.4,2.2c0,0.8-0.1,1.5-0.4,2.2
	c-0.3,0.6-0.7,1.2-1.2,1.7c-0.5,0.5-1.1,0.8-1.8,1.1c-0.7,0.2-1.4,0.4-2.2,0.4c-0.8,0-1.5-0.1-2.2-0.4c-0.7-0.2-1.3-0.6-1.8-1.1
	c-0.5-0.5-0.9-1-1.2-1.7C177.3,122.6,177.2,121.8,177.2,121z M180.3,121c0,0.8,0.2,1.4,0.7,1.8c0.4,0.5,1,0.7,1.8,0.7
	c0.8,0,1.4-0.2,1.8-0.7c0.4-0.5,0.7-1.1,0.7-1.8c0-0.8-0.2-1.4-0.7-1.8c-0.4-0.5-1-0.7-1.8-0.7c-0.8,0-1.4,0.2-1.8,0.7
	C180.5,119.7,180.3,120.3,180.3,121z"/>
</svg>

