<svg xmlns="http://www.w3.org/2000/svg" viewBox="0 0 264.17 205.58"><defs><style>.cls-1{fill:#f5cd34;}.cls-2{fill:#ffe881;}.cls-3{fill:#425960;}.cls-4{fill:#47626d;}</style></defs><g id="Layer_2" data-name="Layer 2"><g id="Layer_1-2" data-name="Layer 1"><g id="Layer_1-2-2" data-name="Layer 1-2"><rect class="cls-1" x="88.78" y="30.09" width="145.3" height="145.3" transform="translate(-25.37 144.24) rotate(-45)"/><polygon class="cls-2" points="102.8 205.58 160.9 205.38 58.2 102.58 0 102.78 102.8 205.58"/><polygon class="cls-3" points="58.2 103.18 0 102.98 102.8 0.18 160.9 0.38 58.2 103.18"/></g></g><g id="Layer_2-2" data-name="Layer 2"><path class="cls-4" d="M127.42,91a5.62,5.62,0,0,1,.48-2.36,5.25,5.25,0,0,1,1.29-1.81,5.62,5.62,0,0,1,1.93-1.16,7,7,0,0,1,2.38-.41,6.86,6.86,0,0,1,2.37.41,5.67,5.67,0,0,1,1.94,1.16,5.38,5.38,0,0,1,1.29,1.81,6.16,6.16,0,0,1,0,4.72,5.38,5.38,0,0,1-1.29,1.81,5.67,5.67,0,0,1-1.94,1.16,6.86,6.86,0,0,1-2.37.41,7,7,0,0,1-2.38-.41,5.62,5.62,0,0,1-1.93-1.16,5.25,5.25,0,0,1-1.29-1.81A5.62,5.62,0,0,1,127.42,91Zm3.38,0a2.8,2.8,0,0,0,.71,2,3,3,0,0,0,4,0,3.17,3.17,0,0,0,0-4,3,3,0,0,0-4,0A2.8,2.8,0,0,0,130.8,91Z"/><path class="cls-4" d="M142,85.52h3.37v1.76h.05a4.18,4.18,0,0,1,1.28-1.52,3.24,3.24,0,0,1,1.87-.51l.58,0a3.79,3.79,0,0,1,.54.09v3.09a4.74,4.74,0,0,0-.7-.17,4.44,4.44,0,0,0-.74-.06,3.62,3.62,0,0,0-1.53.27,2,2,0,0,0-.86.76,2.85,2.85,0,0,0-.4,1.15,11.36,11.36,0,0,0-.09,1.49v4.57H142Z"/><path class="cls-4" d="M163.1,96.46H160V95H160a3.48,3.48,0,0,1-.53.59,3.37,3.37,0,0,1-.76.55,4.71,4.71,0,0,1-1,.41,3.94,3.94,0,0,1-1.09.16,5.57,5.57,0,0,1-2.2-.42,5,5,0,0,1-2.79-3,6.4,6.4,0,0,1-.39-2.27,6.88,6.88,0,0,1,.35-2.19,5.92,5.92,0,0,1,1-1.86,4.79,4.79,0,0,1,1.57-1.29,4.33,4.33,0,0,1,2.09-.49,5.78,5.78,0,0,1,2,.33,3.21,3.21,0,0,1,1.49,1.11h0V79.45h3.37ZM160,91a2.84,2.84,0,0,0-.71-2,3,3,0,0,0-4,0,3.17,3.17,0,0,0,0,4,3,3,0,0,0,4,0A2.84,2.84,0,0,0,160,91Z"/><path class="cls-4" d="M176.43,94.57a5.33,5.33,0,0,1-2,1.59,6.12,6.12,0,0,1-2.57.57,6.86,6.86,0,0,1-2.37-.41,5.57,5.57,0,0,1-1.94-1.16,5.25,5.25,0,0,1-1.29-1.81,6.16,6.16,0,0,1,0-4.72,5.25,5.25,0,0,1,1.29-1.81,5.57,5.57,0,0,1,1.94-1.16,6.86,6.86,0,0,1,2.37-.41,5.43,5.43,0,0,1,2.13.41,4.47,4.47,0,0,1,1.62,1.16,5.24,5.24,0,0,1,1,1.81A7.26,7.26,0,0,1,177,91v1.06h-7.83a2.65,2.65,0,0,0,.88,1.54,2.48,2.48,0,0,0,1.66.57,2.51,2.51,0,0,0,1.41-.37,4,4,0,0,0,1-1Zm-2.86-4.82a1.92,1.92,0,0,0-.56-1.46,2,2,0,0,0-1.51-.61,2.48,2.48,0,0,0-1,.18,2.73,2.73,0,0,0-.74.46,2.14,2.14,0,0,0-.66,1.43Z"/><path class="cls-4" d="M179.51,85.52h3.37v1.76h.05a4.18,4.18,0,0,1,1.28-1.52,3.24,3.24,0,0,1,1.87-.51l.59,0a3.89,3.89,0,0,1,.53.09v3.09a4.74,4.74,0,0,0-.7-.17,4.4,4.4,0,0,0-.73-.06,3.64,3.64,0,0,0-1.54.27,2,2,0,0,0-.86.76,2.85,2.85,0,0,0-.4,1.15,11.36,11.36,0,0,0-.09,1.49v4.57h-3.37Z"/><path class="cls-4" d="M127.42,116.19a5.62,5.62,0,0,1,.48-2.36,5.25,5.25,0,0,1,1.29-1.81,5.62,5.62,0,0,1,1.93-1.16,7,7,0,0,1,2.38-.41,6.86,6.86,0,0,1,2.37.41,5.67,5.67,0,0,1,1.94,1.16,5.38,5.38,0,0,1,1.29,1.81,6.16,6.16,0,0,1,0,4.72,5.38,5.38,0,0,1-1.29,1.81,5.67,5.67,0,0,1-1.94,1.16,6.86,6.86,0,0,1-2.37.41,7,7,0,0,1-2.38-.41,5.62,5.62,0,0,1-1.93-1.16,5.25,5.25,0,0,1-1.29-1.81A5.62,5.62,0,0,1,127.42,116.19Zm3.38,0a2.8,2.8,0,0,0,.71,2,3,3,0,0,0,4,0,3.17,3.17,0,0,0,0-4,3,3,0,0,0-4,0A2.8,2.8,0,0,0,130.8,116.19Z"/><path class="cls-4" d="M142,110.72h3.24v1.49h0a3.08,3.08,0,0,1,.45-.63,3.62,3.62,0,0,1,.7-.57,4.06,4.06,0,0,1,.92-.4,3.72,3.72,0,0,1,1.13-.16,4.57,4.57,0,0,1,2.07.4,3,3,0,0,1,1.23,1.09,4.32,4.32,0,0,1,.59,1.64,11.93,11.93,0,0,1,.16,2v6h-3.38V116.3c0-.31,0-.64,0-1a3.08,3.08,0,0,0-.2-.93,1.46,1.46,0,0,0-1.52-1,2.05,2.05,0,0,0-1.06.24,1.63,1.63,0,0,0-.62.63,2.73,2.73,0,0,0-.28.89,8.47,8.47,0,0,0-.07,1v5.45H142Z"/><path class="cls-4" d="M155.56,104.65h3.37v17h-3.37Z"/><path class="cls-4" d="M161.72,107.28a1.88,1.88,0,0,1,.57-1.38,1.85,1.85,0,0,1,1.38-.58,2,2,0,0,1,0,3.92,1.85,1.85,0,0,1-1.38-.58A1.88,1.88,0,0,1,161.72,107.28Zm.27,3.44h3.37v10.94H162Z"/><path class="cls-4" d="M168.39,110.72h3.24v1.49h0a3.08,3.08,0,0,1,.45-.63,3.62,3.62,0,0,1,.7-.57,4.06,4.06,0,0,1,.92-.4,3.72,3.72,0,0,1,1.13-.16,4.57,4.57,0,0,1,2.07.4,2.94,2.94,0,0,1,1.22,1.09,4.17,4.17,0,0,1,.6,1.64,11.93,11.93,0,0,1,.16,2v6h-3.38V116.3c0-.31,0-.64,0-1a3.08,3.08,0,0,0-.2-.93,1.68,1.68,0,0,0-.52-.7,1.61,1.61,0,0,0-1-.27,2.05,2.05,0,0,0-1.06.24,1.63,1.63,0,0,0-.62.63,2.73,2.73,0,0,0-.28.89,8.47,8.47,0,0,0-.07,1v5.45h-3.37Z"/><path class="cls-4" d="M192.05,119.77a5.33,5.33,0,0,1-2,1.59,6.09,6.09,0,0,1-2.57.57,6.86,6.86,0,0,1-2.37-.41,5.57,5.57,0,0,1-1.94-1.16,5.25,5.25,0,0,1-1.29-1.81,6.16,6.16,0,0,1,0-4.72,5.25,5.25,0,0,1,1.29-1.81,5.57,5.57,0,0,1,1.94-1.16,6.86,6.86,0,0,1,2.37-.41,5.43,5.43,0,0,1,2.13.41,4.47,4.47,0,0,1,1.62,1.16,5.24,5.24,0,0,1,1,1.81,7.26,7.26,0,0,1,.36,2.36v1.06h-7.83a2.71,2.71,0,0,0,.88,1.54,2.48,2.48,0,0,0,1.66.57,2.51,2.51,0,0,0,1.41-.37,3.79,3.79,0,0,0,1-1ZM189.2,115a2,2,0,0,0-2.07-2.07,2.5,2.5,0,0,0-1,.18,2.73,2.73,0,0,0-.74.46,2.21,2.21,0,0,0-.47.66,2.23,2.23,0,0,0-.19.77Z"/></g></g></svg>
