<svg xmlns="http://www.w3.org/2000/svg" viewBox="0 0 264.17 205.58"><defs><style>.cls-1{fill:#f5cd34;}.cls-2{fill:#ffe881;}.cls-3{fill:#425960;}.cls-4{fill:#47626d;}</style></defs><g id="Layer_2" data-name="Layer 2"><g id="Layer_1-2" data-name="Layer 1"><rect class="cls-1" x="88.78" y="30.09" width="145.3" height="145.3" transform="translate(-25.37 144.24) rotate(-45)"/><polygon class="cls-2" points="102.8 205.58 160.9 205.38 58.2 102.58 0 102.78 102.8 205.58"/><polygon class="cls-3" points="58.2 103.18 0 102.98 102.8 0.18 160.9 0.38 58.2 103.18"/><path class="cls-4" d="M116.46,79.84h4.09V82h0a5.06,5.06,0,0,1,1.56-1.84,3.91,3.91,0,0,1,2.26-.62c.24,0,.47,0,.71,0a3.25,3.25,0,0,1,.66.11v3.74a7.16,7.16,0,0,0-.86-.21,6.42,6.42,0,0,0-.89-.07,4.28,4.28,0,0,0-1.85.33,2.52,2.52,0,0,0-1.06.92,3.51,3.51,0,0,0-.47,1.4,12.61,12.61,0,0,0-.11,1.8V93.1h-4.09Z"/><path class="cls-4" d="M140,90.81a6.51,6.51,0,0,1-2.48,1.94,7.52,7.52,0,0,1-3.11.68,8.54,8.54,0,0,1-2.88-.49,7.05,7.05,0,0,1-2.35-1.41,6.8,6.8,0,0,1-1.57-2.19,7.49,7.49,0,0,1,0-5.73,6.74,6.74,0,0,1,1.57-2.2A7.05,7.05,0,0,1,131.54,80a8.54,8.54,0,0,1,2.88-.49A6.74,6.74,0,0,1,137,80a5.44,5.44,0,0,1,2,1.41,6.3,6.3,0,0,1,1.24,2.2,8.85,8.85,0,0,1,.44,2.86v1.28h-9.5a3.22,3.22,0,0,0,1.07,1.87,3,3,0,0,0,2,.7,3.05,3.05,0,0,0,1.7-.45,4.63,4.63,0,0,0,1.22-1.16ZM136.55,85a2.37,2.37,0,0,0-.69-1.77,2.42,2.42,0,0,0-1.82-.74,3,3,0,0,0-1.2.22,2.76,2.76,0,0,0-.89.56,2.31,2.31,0,0,0-.57.79,2.56,2.56,0,0,0-.24.94Z"/><path class="cls-4" d="M150.46,83.74a2.93,2.93,0,0,0-2.38-1.12,2.32,2.32,0,0,0-1,.25.87.87,0,0,0-.49.85.77.77,0,0,0,.51.72,6.91,6.91,0,0,0,1.28.41l1.66.38a6.49,6.49,0,0,1,1.67.64A3.74,3.74,0,0,1,153,87.06a3.51,3.51,0,0,1,.5,2,3.68,3.68,0,0,1-.56,2.12,4.24,4.24,0,0,1-1.43,1.33,5.87,5.87,0,0,1-2,.71,11.45,11.45,0,0,1-2.16.21,10.25,10.25,0,0,1-2.81-.4,5.29,5.29,0,0,1-2.4-1.4l2.48-2.76A4.38,4.38,0,0,0,145.91,90a3.53,3.53,0,0,0,1.63.37,3.7,3.7,0,0,0,1.28-.21.74.74,0,0,0,.57-.75.83.83,0,0,0-.5-.77,5.37,5.37,0,0,0-1.29-.44l-1.66-.38a6.61,6.61,0,0,1-1.66-.62A3.5,3.5,0,0,1,143,86a3.59,3.59,0,0,1-.5-2,4,4,0,0,1,.48-2,4.07,4.07,0,0,1,1.25-1.39,5.52,5.52,0,0,1,1.79-.81,8.27,8.27,0,0,1,2-.26,9.75,9.75,0,0,1,2.65.38A5,5,0,0,1,153,81.26Z"/><path class="cls-4" d="M168,90.81a6.62,6.62,0,0,1-2.49,1.94,7.48,7.48,0,0,1-3.11.68,8.52,8.52,0,0,1-2.87-.49,7,7,0,0,1-2.35-1.41,6.66,6.66,0,0,1-1.57-2.19,7.49,7.49,0,0,1,0-5.73,6.59,6.59,0,0,1,1.57-2.2A7,7,0,0,1,159.57,80a8.52,8.52,0,0,1,2.87-.49A6.66,6.66,0,0,1,165,80a5.39,5.39,0,0,1,2,1.41,6.46,6.46,0,0,1,1.24,2.2,8.85,8.85,0,0,1,.44,2.86v1.28h-9.5a3.21,3.21,0,0,0,1.06,1.87,3,3,0,0,0,2,.7,3.07,3.07,0,0,0,1.71-.45,4.59,4.59,0,0,0,1.21-1.16ZM164.57,85a2.36,2.36,0,0,0-.68-1.77,2.43,2.43,0,0,0-1.83-.74,3,3,0,0,0-1.2.22,2.82,2.82,0,0,0-.88.56,2.49,2.49,0,0,0-.58.79,2.76,2.76,0,0,0-.23.94Z"/><path class="cls-4" d="M171.21,79.84h4.09V82h0a5.06,5.06,0,0,1,1.56-1.84,3.91,3.91,0,0,1,2.26-.62c.24,0,.47,0,.71,0a3.25,3.25,0,0,1,.66.11v3.74a7.16,7.16,0,0,0-.86-.21,6.42,6.42,0,0,0-.89-.07,4.36,4.36,0,0,0-1.86.33,2.55,2.55,0,0,0-1.05.92,3.51,3.51,0,0,0-.47,1.4,12.61,12.61,0,0,0-.11,1.8V93.1h-4.09Z"/><path class="cls-4" d="M181.56,79.84H186l3.36,9h0l3.11-9h4.12L191.38,93.1h-4.33Z"/><path class="cls-4" d="M210.05,90.81a6.62,6.62,0,0,1-2.49,1.94,7.48,7.48,0,0,1-3.11.68,8.54,8.54,0,0,1-2.88-.49,6.91,6.91,0,0,1-2.34-1.41,6.52,6.52,0,0,1-1.57-2.19,7.49,7.49,0,0,1,0-5.73,6.46,6.46,0,0,1,1.57-2.2A6.91,6.91,0,0,1,201.57,80a8.54,8.54,0,0,1,2.88-.49A6.66,6.66,0,0,1,207,80a5.48,5.48,0,0,1,2,1.41,6.46,6.46,0,0,1,1.24,2.2,8.85,8.85,0,0,1,.43,2.86v1.28h-9.49a3.21,3.21,0,0,0,1.06,1.87,3,3,0,0,0,2,.7,3.11,3.11,0,0,0,1.71-.45,4.75,4.75,0,0,0,1.21-1.16ZM206.58,85a2.36,2.36,0,0,0-.68-1.77,2.44,2.44,0,0,0-1.83-.74,3,3,0,0,0-1.2.22,2.87,2.87,0,0,0-.89.56,2.61,2.61,0,0,0-.57.79,2.55,2.55,0,0,0-.23.94Z"/><path class="cls-4" d="M116,119.21a7,7,0,0,1,.58-2.86,6.46,6.46,0,0,1,1.57-2.2,6.91,6.91,0,0,1,2.34-1.41,8.71,8.71,0,0,1,5.76,0,7.05,7.05,0,0,1,2.35,1.41,6.57,6.57,0,0,1,1.56,2.2,7.37,7.37,0,0,1,0,5.73,6.63,6.63,0,0,1-1.56,2.19,7.05,7.05,0,0,1-2.35,1.41,8.71,8.71,0,0,1-5.76,0,6.91,6.91,0,0,1-2.34-1.41,6.52,6.52,0,0,1-1.57-2.19A7,7,0,0,1,116,119.21Zm4.1,0a3.41,3.41,0,0,0,.86,2.43,3.1,3.1,0,0,0,2.41.93,3.14,3.14,0,0,0,2.42-.93,3.9,3.9,0,0,0,0-4.86,3.14,3.14,0,0,0-2.42-.93,3.1,3.1,0,0,0-2.41.93A3.41,3.41,0,0,0,120.06,119.21Z"/><path class="cls-4" d="M133.12,112.58h3.93v1.8h.06a3,3,0,0,1,.54-.76,3.85,3.85,0,0,1,.85-.68,4.8,4.8,0,0,1,1.12-.5,4.86,4.86,0,0,1,1.36-.19,5.61,5.61,0,0,1,2.51.48,3.68,3.68,0,0,1,1.49,1.32,5.52,5.52,0,0,1,.72,2,14.78,14.78,0,0,1,.19,2.48v7.31H141.8v-6.49c0-.38,0-.78,0-1.19a3.66,3.66,0,0,0-.25-1.13,1.77,1.77,0,0,0-1.84-1.18,2.5,2.5,0,0,0-1.28.29,1.91,1.91,0,0,0-.75.77,2.81,2.81,0,0,0-.34,1.07,8.49,8.49,0,0,0-.09,1.26v6.6h-4.09Z"/><path class="cls-4" d="M149,105.21H153v20.63H149Z"/><path class="cls-4" d="M155.85,108.41a2.39,2.39,0,1,1,.7,1.67A2.26,2.26,0,0,1,155.85,108.41Zm.33,4.17h4.09v13.26h-4.09Z"/><path class="cls-4" d="M163.38,112.58h3.93v1.8h.05a3.3,3.3,0,0,1,.55-.76,3.79,3.79,0,0,1,.84-.68,4.64,4.64,0,0,1,2.49-.69,5.64,5.64,0,0,1,2.51.48,3.65,3.65,0,0,1,1.48,1.32,5.35,5.35,0,0,1,.73,2,15.92,15.92,0,0,1,.19,2.48v7.31h-4.09v-6.49c0-.38,0-.78-.05-1.19a3.39,3.39,0,0,0-.24-1.13,2,2,0,0,0-.63-.85,1.92,1.92,0,0,0-1.21-.33,2.5,2.5,0,0,0-1.28.29,1.91,1.91,0,0,0-.75.77,3,3,0,0,0-.35,1.07,10.14,10.14,0,0,0-.08,1.26v6.6h-4.09Z"/><path class="cls-4" d="M191.51,123.55a6.59,6.59,0,0,1-2.48,1.94,7.52,7.52,0,0,1-3.11.68,8.3,8.3,0,0,1-2.88-.49,7,7,0,0,1-2.35-1.41,6.66,6.66,0,0,1-1.57-2.19,7.49,7.49,0,0,1,0-5.73,6.59,6.59,0,0,1,1.57-2.2,7,7,0,0,1,2.35-1.41,8.54,8.54,0,0,1,2.88-.49,6.65,6.65,0,0,1,2.57.49,5.39,5.39,0,0,1,2,1.41,6.46,6.46,0,0,1,1.24,2.2,8.85,8.85,0,0,1,.44,2.86v1.28h-9.5a3.17,3.17,0,0,0,1.07,1.87,3,3,0,0,0,2,.7,3.07,3.07,0,0,0,1.71-.45,4.59,4.59,0,0,0,1.21-1.16ZM188,117.71a2.36,2.36,0,0,0-.68-1.77,2.43,2.43,0,0,0-1.83-.74,3,3,0,0,0-1.2.22,2.82,2.82,0,0,0-.88.56,2.49,2.49,0,0,0-.58.79,2.76,2.76,0,0,0-.23.94Z"/></g></g></svg>