<svg xmlns="http://www.w3.org/2000/svg" viewBox="0 0 264.17 205.58"><defs><style>.cls-1{fill:#425960;}.cls-2{fill:#f5cd34;}.cls-3{fill:#ffe881;}.cls-4{fill:#fff;}</style></defs><g id="Layer_2" data-name="Layer 2"><g id="Layer_1-2" data-name="Layer 1"><rect class="cls-1" x="88.78" y="30.09" width="145.3" height="145.3" transform="translate(-25.37 144.24) rotate(-45)"/><polygon class="cls-2" points="102.8 205.58 160.9 205.38 58.2 102.58 0 102.78 102.8 205.58"/><polygon class="cls-3" points="58.2 103.18 0 102.98 102.8 0.18 160.9 0.38 58.2 103.18"/></g><g id="Layer_2-2" data-name="Layer 2"><path class="cls-4" d="M94,99h3.37v1.76h0a4.08,4.08,0,0,1,1.28-1.52,3.24,3.24,0,0,1,1.87-.51,5.63,5.63,0,0,1,.58,0,2.17,2.17,0,0,1,.54.09v3.08a4.57,4.57,0,0,0-.71-.17,4.23,4.23,0,0,0-.73-.06,3.62,3.62,0,0,0-1.53.27,2,2,0,0,0-.86.76,2.75,2.75,0,0,0-.4,1.16,11.2,11.2,0,0,0-.09,1.48v4.57H94Z"/><path class="cls-4" d="M113.85,108a5.41,5.41,0,0,1-2,1.6,6.19,6.19,0,0,1-2.56.56,7,7,0,0,1-2.38-.41,5.62,5.62,0,0,1-1.93-1.16,5.25,5.25,0,0,1-1.29-1.81,6,6,0,0,1,0-4.72,5.25,5.25,0,0,1,1.29-1.81,5.62,5.62,0,0,1,1.93-1.16,7,7,0,0,1,2.38-.41,5.34,5.34,0,0,1,2.12.41,4.31,4.31,0,0,1,1.62,1.16,5.1,5.1,0,0,1,1,1.81,7.26,7.26,0,0,1,.36,2.36v1.06h-7.83a2.64,2.64,0,0,0,.87,1.54,2.51,2.51,0,0,0,1.67.57,2.56,2.56,0,0,0,1.41-.37,3.91,3.91,0,0,0,1-1ZM111,103.22a1.93,1.93,0,0,0-.56-1.46,2,2,0,0,0-1.51-.61,2.57,2.57,0,0,0-1,.18,2.67,2.67,0,0,0-.73.46,2.14,2.14,0,0,0-.66,1.43Z"/><path class="cls-4" d="M122.93,102.21a2.41,2.41,0,0,0-2-.92,1.91,1.91,0,0,0-.83.2.73.73,0,0,0-.41.7.61.61,0,0,0,.42.59,5.52,5.52,0,0,0,1.06.34l1.37.32A5.06,5.06,0,0,1,124,104a3.08,3.08,0,0,1,1.06,1,2.94,2.94,0,0,1,.42,1.66,3,3,0,0,1-.47,1.74,3.36,3.36,0,0,1-1.18,1.1,5,5,0,0,1-1.62.59,9.81,9.81,0,0,1-1.77.17,8.5,8.5,0,0,1-2.32-.33,4.23,4.23,0,0,1-2-1.16l2-2.27a3.32,3.32,0,0,0,1,.89,2.85,2.85,0,0,0,1.34.3,3,3,0,0,0,1.06-.17.61.61,0,0,0,.47-.61.7.7,0,0,0-.42-.65,4.73,4.73,0,0,0-1-.36l-1.38-.31a5.51,5.51,0,0,1-1.37-.51,2.84,2.84,0,0,1-1.06-1,3,3,0,0,1-.41-1.66,3.34,3.34,0,0,1,.39-1.66,3.38,3.38,0,0,1,1-1.15,4.38,4.38,0,0,1,1.47-.66,6.48,6.48,0,0,1,1.69-.22,7.88,7.88,0,0,1,2.18.32,4,4,0,0,1,1.87,1.12Z"/><path class="cls-4" d="M137.89,108a5.45,5.45,0,0,1-2,1.6,6.27,6.27,0,0,1-2.57.56,6.86,6.86,0,0,1-2.37-.41,5.57,5.57,0,0,1-1.94-1.16,5.25,5.25,0,0,1-1.29-1.81,6.16,6.16,0,0,1,0-4.72,5.25,5.25,0,0,1,1.29-1.81,5.57,5.57,0,0,1,1.94-1.16,6.86,6.86,0,0,1,2.37-.41,5.43,5.43,0,0,1,2.13.41,4.47,4.47,0,0,1,1.62,1.16,5.24,5.24,0,0,1,1,1.81,7.26,7.26,0,0,1,.36,2.36v1.06h-7.83a2.71,2.71,0,0,0,.88,1.54,2.48,2.48,0,0,0,1.66.57,2.51,2.51,0,0,0,1.41-.37,3.75,3.75,0,0,0,1-1ZM135,103.22a2,2,0,0,0-.57-1.46,2,2,0,0,0-1.5-.61,2.5,2.5,0,0,0-1,.18,2.73,2.73,0,0,0-.74.46,2.14,2.14,0,0,0-.66,1.43Z"/><path class="cls-4" d="M141,99h3.38v1.76h0a4.18,4.18,0,0,1,1.28-1.52,3.24,3.24,0,0,1,1.87-.51,5.83,5.83,0,0,1,.59,0,2.34,2.34,0,0,1,.54.09v3.08a4.86,4.86,0,0,0-.71-.17,4.4,4.4,0,0,0-.73-.06,3.56,3.56,0,0,0-1.53.27,2,2,0,0,0-.87.76,2.89,2.89,0,0,0-.39,1.16,11.2,11.2,0,0,0-.09,1.48v4.57H141Z"/><path class="cls-4" d="M150,99h3.65l2.77,7.43h0L159,99h3.4l-4.33,10.94H154.5Z"/><path class="cls-4" d="M170.73,108.56h0a3.28,3.28,0,0,1-1.5,1.26,5.23,5.23,0,0,1-2,.38,4.8,4.8,0,0,1-1.47-.22,3.61,3.61,0,0,1-1.25-.64,3,3,0,0,1-.86-1,3.72,3.72,0,0,1,0-3.06,3.07,3.07,0,0,1,.94-1.08,4.67,4.67,0,0,1,1.36-.67,10.2,10.2,0,0,1,1.59-.35,15.09,15.09,0,0,1,1.64-.13c.55,0,1.06,0,1.52,0a1.75,1.75,0,0,0-.64-1.43,2.27,2.27,0,0,0-1.52-.53,3.24,3.24,0,0,0-1.52.35,4.11,4.11,0,0,0-1.22.95l-1.8-1.84a6.07,6.07,0,0,1,2.2-1.32,8,8,0,0,1,2.61-.44,7,7,0,0,1,2.44.37,3.56,3.56,0,0,1,1.53,1.1,4.08,4.08,0,0,1,.8,1.76,11.63,11.63,0,0,1,.23,2.42v5.56h-3.11Zm-.83-3.42-1,0a5,5,0,0,0-1.1.19,2.57,2.57,0,0,0-.9.47,1.09,1.09,0,0,0-.37.88,1,1,0,0,0,.52.9,2.09,2.09,0,0,0,1.08.29,3.35,3.35,0,0,0,1-.13,2.94,2.94,0,0,0,.82-.38,2.05,2.05,0,0,0,.58-.63,1.87,1.87,0,0,0,.21-.9v-.72Z"/><path class="cls-4" d="M183.91,101.69h-3v3.65a6.81,6.81,0,0,0,.05.82,1.56,1.56,0,0,0,.2.64,1,1,0,0,0,.48.42,2.33,2.33,0,0,0,.87.14c.18,0,.42,0,.71,0a1.25,1.25,0,0,0,.66-.26v2.81a4.53,4.53,0,0,1-1.17.27,9.61,9.61,0,0,1-1.19.07A6.53,6.53,0,0,1,180,110a3.47,3.47,0,0,1-1.26-.58,2.63,2.63,0,0,1-.84-1,3.54,3.54,0,0,1-.3-1.53v-5.2h-2.16V99h2.16V95.75h3.37V99h3Z"/><path class="cls-4" d="M186.12,95.55a2,2,0,1,1,.58,1.38A1.85,1.85,0,0,1,186.12,95.55Zm.27,3.44h3.38v10.94h-3.38Z"/><path class="cls-4" d="M192.21,104.46a5.62,5.62,0,0,1,.47-2.36,5.38,5.38,0,0,1,1.29-1.81,5.67,5.67,0,0,1,1.94-1.16,6.86,6.86,0,0,1,2.37-.41,7,7,0,0,1,2.38.41,5.62,5.62,0,0,1,1.93,1.16,5.41,5.41,0,0,1,1.3,1.81,6.16,6.16,0,0,1,0,4.72,5.41,5.41,0,0,1-1.3,1.81,5.62,5.62,0,0,1-1.93,1.16,7,7,0,0,1-2.38.41,6.86,6.86,0,0,1-2.37-.41,5.67,5.67,0,0,1-1.94-1.16,5.38,5.38,0,0,1-1.29-1.81A5.62,5.62,0,0,1,192.21,104.46Zm3.37,0a2.83,2.83,0,0,0,.71,2,3,3,0,0,0,4,0,3.17,3.17,0,0,0,0-4,3,3,0,0,0-4,0A2.84,2.84,0,0,0,195.58,104.46Z"/><path class="cls-4" d="M206.82,99h3.24v1.49h.05a2.46,2.46,0,0,1,.45-.63,3,3,0,0,1,.7-.56,3.88,3.88,0,0,1,.92-.41,4,4,0,0,1,1.12-.16,4.65,4.65,0,0,1,2.07.4,2.9,2.9,0,0,1,1.23,1.09,4.5,4.5,0,0,1,.6,1.64,13.07,13.07,0,0,1,.15,2.05v6H214v-5.36c0-.31,0-.64,0-1a3.15,3.15,0,0,0-.2-.93,1.46,1.46,0,0,0-1.52-1,2,2,0,0,0-1.05.24,1.63,1.63,0,0,0-.62.63,2.33,2.33,0,0,0-.28.89,6.85,6.85,0,0,0-.07,1v5.45h-3.38Z"/><path class="cls-4" d="M226.4,102.21a2.41,2.41,0,0,0-2-.92,1.91,1.91,0,0,0-.83.2.73.73,0,0,0-.41.7.61.61,0,0,0,.42.59,5.52,5.52,0,0,0,1.06.34l1.37.32a5.06,5.06,0,0,1,1.37.53,3.08,3.08,0,0,1,1.06,1,2.94,2.94,0,0,1,.42,1.66,3,3,0,0,1-.47,1.74,3.36,3.36,0,0,1-1.18,1.1,5,5,0,0,1-1.62.59,9.81,9.81,0,0,1-1.77.17,8.5,8.5,0,0,1-2.32-.33,4.23,4.23,0,0,1-2-1.16l2.05-2.27a3.32,3.32,0,0,0,1,.89,2.85,2.85,0,0,0,1.34.3,3,3,0,0,0,1.06-.17.61.61,0,0,0,.47-.61.7.7,0,0,0-.42-.65,4.73,4.73,0,0,0-1-.36l-1.38-.31a5.51,5.51,0,0,1-1.37-.51,2.84,2.84,0,0,1-1.06-1,3,3,0,0,1-.41-1.66,3.34,3.34,0,0,1,.39-1.66,3.38,3.38,0,0,1,1-1.15,4.38,4.38,0,0,1,1.47-.66,6.48,6.48,0,0,1,1.69-.22,7.88,7.88,0,0,1,2.18.32,4,4,0,0,1,1.87,1.12Z"/></g></g></svg>
