<svg xmlns="http://www.w3.org/2000/svg" viewBox="0 0 32.85 32.85"><defs><style>.cls-1{fill:#f5cd34;}</style></defs><title>Asset 4</title><g id="Layer_2" data-name="Layer 2"><g id="Layer_1-2" data-name="Layer 1"><path class="cls-1" d="M16.29,12.57h-.1a3.52,3.52,0,0,0-2.46,1,3.88,3.88,0,0,0-1.17,2.77,3.78,3.78,0,1,0,7.57,0,3.7,3.7,0,0,0-.88-2.63A4.1,4.1,0,0,0,16.29,12.57Z"/><path class="cls-1" d="M21.28,6.34H11.4a4.78,4.78,0,0,0-4.77,4.77V21.65a4.78,4.78,0,0,0,4.77,4.77h9.88a4.78,4.78,0,0,0,4.77-4.77V11.11A4.78,4.78,0,0,0,21.28,6.34Zm2.14,10a7.24,7.24,0,0,1-2.09,5,7,7,0,0,1-5,2.08,7.09,7.09,0,0,1-7.08-7.08,7.2,7.2,0,0,1,2.17-5.13,6.78,6.78,0,0,1,5-1.95,7.3,7.3,0,0,1,5.27,2.16A6.86,6.86,0,0,1,23.42,16.39ZM23,11.16a1.52,1.52,0,1,1,1.52-1.52A1.52,1.52,0,0,1,23,11.16Z"/><path class="cls-1" d="M26.69,0H6.15A6.16,6.16,0,0,0,0,6.15V26.69a6.16,6.16,0,0,0,6.15,6.17H26.69a6.16,6.16,0,0,0,6.17-6.17V6.15A6.16,6.16,0,0,0,26.69,0Zm2.06,21.65a7.48,7.48,0,0,1-7.47,7.47H11.4a7.48,7.48,0,0,1-7.47-7.47V11.11A7.48,7.48,0,0,1,11.4,3.64h9.88a7.48,7.48,0,0,1,7.47,7.47Z"/></g></g></svg>