<svg xmlns="http://www.w3.org/2000/svg" viewBox="0 0 32.85 32.85"><defs><style>.cls-1{fill:#f5cd34;}</style></defs><title>Asset 5</title><g id="Layer_2" data-name="Layer 2"><g id="Layer_1-2" data-name="Layer 1"><path class="cls-1" d="M26.69,0H6.15A6.16,6.16,0,0,0,0,6.15V26.69a6.16,6.16,0,0,0,6.15,6.17H26.69a6.16,6.16,0,0,0,6.17-6.17V6.15A6.16,6.16,0,0,0,26.69,0ZM24.6,12.74v.52A11.49,11.49,0,0,1,6.91,22.95a7.36,7.36,0,0,0,1,.06,8.12,8.12,0,0,0,5-1.73,4.05,4.05,0,0,1-3.78-2.81,3.75,3.75,0,0,0,.76.07,4.09,4.09,0,0,0,1.06-.14,4,4,0,0,1-3.24-4v-.05a4,4,0,0,0,1.82.5,4,4,0,0,1-1.79-3.36,4,4,0,0,1,.55-2,11.47,11.47,0,0,0,8.33,4.22,3.88,3.88,0,0,1-.1-.92,4,4,0,0,1,7-2.77,8.15,8.15,0,0,0,2.57-1,4,4,0,0,1-1.78,2.24,8.14,8.14,0,0,0,2.33-.64,8.32,8.32,0,0,1-2,2.1Zm0,0"/></g></g></svg>