<svg xmlns="http://www.w3.org/2000/svg" viewBox="0 0 170.9 170.9"><defs><style>.cls-1{fill:#f2c217;}</style></defs><title>Asset 14</title><g id="Layer_2" data-name="Layer 2"><g id="Layer_1-2" data-name="Layer 1"><path class="cls-1" d="M85.45,0A85.45,85.45,0,1,0,170.9,85.45,85.45,85.45,0,0,0,85.45,0ZM143,143a81.13,81.13,0,1,1,17.45-25.88A81.14,81.14,0,0,1,143,143Z"/><path class="cls-1" d="M85.45,10a75.5,75.5,0,1,0,75.5,75.5A75.5,75.5,0,0,0,85.45,10ZM136,136a71.21,71.21,0,1,1,15.31-22.71A71.21,71.21,0,0,1,136,136Z"/><path class="cls-1" d="M33.89,85.45A51.57,51.57,0,1,1,122,121.83v5.54a55.61,55.61,0,1,0-73,.07V121.9A51.23,51.23,0,0,1,33.89,85.45Z"/><path class="cls-1" d="M53,130.65v-5.09L53,67.17,48.9,64.71,49,121.9V135q2,1.46,4.05,2.75Z"/><path class="cls-1" d="M62.89,136.3v-4.45l-.08-58.69-4.05-2.46.08,58.95v11.3q2,1,4.05,1.77Z"/><path class="cls-1" d="M72.74,139.61v-4.16l-.07-56.32-4.05-2.46.07,57.57v10.41q2,.56,4.05,1Z"/><path class="cls-1" d="M82.59,141v-4.06l-.07-51.83-4.05-2.46.07,53.91v10q2,.22,4.05.32Z"/><path class="cls-1" d="M92.44,140.63v-4.08l-.07-54-4,2.45.07,51.93v10q2-.1,4-.32Z"/><path class="cls-1" d="M102.29,138.47v-4.25l-.07-57.64-4,2.45.07,56.39v10.2q2-.43,4-1Z"/><path class="cls-1" d="M112.13,134.26V129.6l-.08-59-4,2.45.08,58.75v10.85q2.05-.81,4-1.77Z"/><path class="cls-1" d="M117.95,67v70.66q2.07-1.29,4-2.76V64.58Z"/><path class="cls-1" d="M85.45,23.95A61.5,61.5,0,1,1,42,42a61.1,61.1,0,0,1,43.49-18m0-4A65.55,65.55,0,1,0,151,85.45,65.55,65.55,0,0,0,85.45,19.9Z"/></g></g></svg>