<?xml version="1.0" encoding="utf-8"?>
<!-- Generator: Adobe Illustrator 21.0.2, SVG Export Plug-In . SVG Version: 6.00 Build 0)  -->
<svg version="1.1" id="Layer_1" xmlns="http://www.w3.org/2000/svg" xmlns:xlink="http://www.w3.org/1999/xlink" x="0px" y="0px"
	 viewBox="0 0 234.5 234.5" style="enable-background:new 0 0 234.5 234.5;" xml:space="preserve">
<style type="text/css">
	.st0{fill:#324144;}
	.st1{fill:#FBDD6A;}
	.st2{fill:#F8D251;}
	.st3{fill:#F5CD34;}
	.st4{fill:#FFE881;}
</style>
<title>Asset 18</title>
<g id="Layer_1-2">
	<g id="XMLID_1_">
		<g>
			<path class="st0" d="M117.2-0.9c64.7,0,117.2,52.5,117.2,117.2c0,64.8-52.5,117.2-117.2,117.2S0,181.1,0,116.3
				C0,51.6,52.5-0.9,117.2-0.9z M165.6,103.9v-4.8l-48.5,48.5L68.9,99.4v4.8l48.2,48.2L165.6,103.9z M165.6,93.6v-4.8l-48.5,48.5
				L68.9,89.1v4.8l48.2,48.2L165.6,93.6z M165.6,83.2v-4.8l-48.5,48.5L68.9,78.7v4.8l48.2,48.2L165.6,83.2z M165.6,114.3v-4.8
				L117.1,158l-48.2-48.2v4.8l48.2,48.2v0l0,0h0v0L165.6,114.3z"/>
			<polygon class="st1" points="165.6,99.2 165.6,103.9 117.1,152.4 68.9,104.2 68.9,99.4 117.1,147.6 			"/>
			<polygon class="st2" points="165.6,88.8 165.6,93.6 117.1,142.1 68.9,93.9 68.9,89.1 117.1,137.3 			"/>
			<polygon class="st3" points="165.6,78.4 165.6,83.2 117.1,131.7 68.9,83.5 68.9,78.7 117.1,126.9 			"/>
			<polygon class="st4" points="117.1,162.8 117.1,162.8 117.1,162.8 117.1,162.8 117.1,162.8 68.9,114.6 68.9,109.8 117.1,158 
				165.6,109.5 165.6,114.3 			"/>
		</g>
		<g>
		</g>
	</g>
</g>
</svg>
