<?xml version="1.0" encoding="utf-8"?>
<!-- Generator: Adobe Illustrator 21.0.2, SVG Export Plug-In . SVG Version: 6.00 Build 0)  -->
<svg version="1.1" id="Layer_1" xmlns="http://www.w3.org/2000/svg" xmlns:xlink="http://www.w3.org/1999/xlink" x="0px" y="0px"
	 viewBox="0 0 238 238" style="enable-background:new 0 0 238 238;" xml:space="preserve">
<style type="text/css">
	.st0{fill:#324144;}
	.st1{fill:#FBDD6A;}
	.st2{fill:#F8D251;}
	.st3{fill:#F5CD34;}
	.st4{fill:#FFE881;}
</style>
<title>Asset 18</title>
<g id="Layer_1-2">
	<g id="XMLID_1_">
		<g>
			<path class="st0" d="M119,1.8c64.7,0,117.2,52.5,117.2,117.2c0,64.8-52.5,117.2-117.2,117.2S1.8,183.8,1.8,119
				C1.8,54.3,54.3,1.8,119,1.8z M167.4,106.6v-4.8l-48.5,48.5l-48.2-48.2v4.8l48.2,48.2L167.4,106.6z M167.4,96.3v-4.8L118.9,140
				L70.7,91.8v4.8l48.2,48.2L167.4,96.3z M167.4,85.9v-4.8l-48.5,48.5L70.7,81.4v4.8l48.2,48.2L167.4,85.9z M167.4,117v-4.8
				l-48.5,48.5l-48.2-48.2v4.8l48.2,48.2l0,0l0,0l0,0l0,0L167.4,117z"/>
			<polygon class="st1" points="167.4,101.9 167.4,106.6 118.9,155.1 70.7,106.9 70.7,102.1 118.9,150.3 			"/>
			<polygon class="st2" points="167.4,91.5 167.4,96.3 118.9,144.8 70.7,96.6 70.7,91.8 118.9,140 			"/>
			<polygon class="st3" points="167.4,81.1 167.4,85.9 118.9,134.4 70.7,86.2 70.7,81.4 118.9,129.6 			"/>
			<polygon class="st4" points="118.9,165.5 118.9,165.5 118.9,165.5 118.9,165.5 118.9,165.5 70.7,117.3 70.7,112.5 118.9,160.7 
				167.4,112.2 167.4,117 			"/>
		</g>
	</g>
</g>
</svg>
