<svg xmlns="http://www.w3.org/2000/svg" viewBox="0 0 32.85 32.85"><defs><style>.cls-1{fill:#f5cd34;}</style></defs><title>Asset 3</title><g id="Layer_2" data-name="Layer 2"><g id="Layer_1-2" data-name="Layer 1"><path class="cls-1" d="M26.69,0H6.15A6.16,6.16,0,0,0,0,6.15V26.69a6.16,6.16,0,0,0,6.15,6.17H16.21V20H13.57V15.57h2.63V12c0-.66-.13-5.05,5.54-5.05h4V11.5H22.8a1.27,1.27,0,0,0-1.17,1.05v3h4.11c-.17,2.3-.51,4.41-.51,4.41H21.61V32.85h5.08a6.16,6.16,0,0,0,6.17-6.17V6.15A6.16,6.16,0,0,0,26.69,0Z"/></g></g></svg>