<?xml version="1.0" encoding="utf-8"?>
<!-- Generator: Adobe Illustrator 21.0.2, SVG Export Plug-In . SVG Version: 6.00 Build 0)  -->
<svg version="1.1" id="Layer_1" xmlns="http://www.w3.org/2000/svg" xmlns:xlink="http://www.w3.org/1999/xlink" x="0px" y="0px"
	 viewBox="0 0 381 116" style="enable-background:new 0 0 381 116;" xml:space="preserve">
<style type="text/css">
	.st0{fill:#FFE881;}
	.st1{fill:#F8D251;}
	.st2{fill:#F5CD34;}
	.st3{fill:#F2C217;}
	.st4{fill:#FBDD6A;}
</style>
<g>
	<g>
		<path class="st0" d="M177.5,51.1c-10,0-18.6,6-22.4,14.7v-63h-2c0,0,0,72.7,0,72.8c0,13.5,11,24.4,24.4,24.4s24.4-11,24.4-24.4
			C201.9,62.1,190.9,51.1,177.5,51.1z M177.5,98c-12.3,0-22.4-10-22.4-22.4c0-0.1,0-0.3,0-0.3c0.1-12.2,10.1-22.1,22.4-22.1
			c12.3,0,22.4,10,22.4,22.4C199.8,87.9,189.8,98,177.5,98z"/>
		<path class="st0" d="M288.4,113.2h-2v-7.4c0.7-0.5,1.4-1.1,2-1.6V113.2z"/>
		<path class="st0" d="M354.5,51.2c-10.9,0-19.7,8.8-19.8,19.7l0,42.3h2l0-42.3c0-9.7,8-17.7,17.7-17.7c5.4,0,10.2,2.4,13.4,6.2
			l1.4-1.5C365.6,53.7,360.3,51.2,354.5,51.2z"/>
		<path class="st0" d="M89.6,51.1c-8.4,0-15.6,5.3-18.5,12.8c0.5,2.2,0.7,4.6,0.7,6.9c0,0,0,0,0,0c0.1-9.7,8-17.6,17.7-17.6
			c9.8,0,17.7,7.9,17.7,17.7v42.4h2V70.9C109.3,60,100.5,51.1,89.6,51.1z"/>
	</g>
	<g>
		<path class="st1" d="M177.5,42.3c-8.6,0-16.5,3.3-22.4,8.7v2.9c5.7-5.8,13.6-9.5,22.4-9.5c17.2,0,31.2,14,31.2,31.2
			c0,17.2-14,31.2-31.2,31.2s-31.2-14-31.2-31.2c0-0.1,0-72.8,0-72.8h-2c0,0,0,72.7,0,72.8c0,18.3,14.9,33.2,33.2,33.2
			s33.2-14.9,33.2-33.2C210.7,57.2,195.8,42.3,177.5,42.3z"/>
		<path class="st1" d="M148.7,113.2h2V102c-0.7-0.7-1.4-1.5-2-2.2V113.2z"/>
		<path class="st1" d="M297.2,113.2h-2V96.7c0.7-1.1,1.4-2.2,2-3.4V113.2z"/>
		<path class="st1" d="M354.4,42.2c-15.8,0-28.6,12.8-28.6,28.6l0,42.3h2l0-42.3c0-14.6,11.9-26.6,26.6-26.6
			c7.7,0,14.6,3.3,19.4,8.5l1.4-1.5C370,45.7,362.6,42.2,354.4,42.2z"/>
		<path class="st1" d="M89.6,42.2c-9.2,0-17.5,4.4-22.7,11.2c0.4,0.6,0.8,1.3,1.1,1.9c4.8-6.7,12.7-11.1,21.6-11.1
			c14.6,0,26.6,11.9,26.6,26.6v42.4h2V70.8C118.2,55,105.3,42.2,89.6,42.2z"/>
		<path class="st1" d="M38.8,46.7c-13.3,0-24.2,10.8-24.2,24.1v42.3h2V70.9c0-12.2,10-22.1,22.2-22.1C51,48.8,61,58.7,61,70.9v42.3
			h2V70.9C63,57.6,52.2,46.7,38.8,46.7z"/>
		<path class="st1" d="M292.9,37.9h-2c0,0,0,37.6,0,37.7c0,14.8-12,26.8-26.8,26.8c-14.8,0-26.8-12-26.8-26.8s12-26.8,26.8-26.8
			c9.3,0,17.6,4.8,22.4,12.1v-3.4c-5.3-6.5-13.4-10.7-22.4-10.7c-15.9,0-28.8,12.9-28.8,28.8c0,15.9,12.9,28.8,28.8,28.8
			s28.8-12.9,28.8-28.8C292.9,75.4,292.9,37.9,292.9,37.9z"/>
	</g>
	<g>
		<path class="st2" d="M144.3,113.2h2V96.7c-0.7-1.1-1.4-2.2-2-3.4V113.2z"/>
		<path class="st2" d="M177.5,37.9c-8.4,0-16.1,2.8-22.4,7.4v2.6c6.1-5,13.9-7.9,22.4-7.9c19.6,0,35.6,16,35.6,35.6
			c0,19.6-16,35.6-35.6,35.6c-19.5,0-35.4-15.8-35.6-35.2l0-73.2h-2l0,73.2c0,4.1,0.8,8.1,2,11.9c2.5,7.2,7.2,13.5,13.3,18.1
			c6.2,4.6,14,7.4,22.3,7.4c20.8,0,37.6-16.9,37.6-37.6C215.1,54.8,198.2,37.9,177.5,37.9z"/>
		<path class="st2" d="M301.7,113.2h-2V87.8c1.3-3.7,2-7.7,2-11.9V113.2z"/>
		<path class="st2" d="M321.4,70.9l0,42.3h2l0-42.3c0-2.4,0.3-4.8,0.8-7c-0.7-0.3-1.3-0.7-1.8-1.1C321.8,65.4,321.4,68.1,321.4,70.9
			z"/>
		<path class="st2" d="M354.5,37.9c-8.6,0-16.5,3.3-22.3,8.7c-0.5,0.5-1.1,1-1.6,1.6c0.7,0.2,1.3,0.6,1.9,1c0.5-0.5,1-1,1.5-1.4
			c5.5-4.9,12.7-7.8,20.5-7.8c8.8,0,16.7,3.7,22.3,9.7l1.4-1.5C372.1,41.8,363.7,37.9,354.5,37.9z"/>
		<path class="st2" d="M89.6,37.9c-10.2,0-19.3,4.6-25.4,11.9c0.4,0.5,0.9,1.1,1.3,1.7c5.7-7,14.4-11.5,24.1-11.5
			c17.1,0,31,13.9,31,31v42.3h2V70.9C122.6,52.7,107.8,37.9,89.6,37.9z"/>
		<path class="st2" d="M38.8,42.2c-15.8,0-28.6,12.8-28.6,28.6v42.4h2V70.8c0-14.6,11.9-26.6,26.6-26.6c14.6,0,26.6,11.9,26.6,26.6
			v42.4h2V70.8C67.4,55,54.6,42.2,38.8,42.2z"/>
		<path class="st2" d="M12.4,45.8c-5.2,0-9.5,4.3-9.5,9.5c0,3.1,1.5,5.9,3.9,7.6c0,0,0,0,0.1,0c0.6,0.4,1.1,0.7,1.8,1l0,0
			c0.2-0.7,0.3-1.3,0.5-2c0,0,0,0,0,0c-0.6-0.3-1.2-0.7-1.7-1.1c0,0,0,0-0.1,0c-1.5-1.4-2.5-3.3-2.5-5.5c0-4.1,3.3-7.4,7.4-7.4
			c0.9,0,1.7,0.2,2.4,0.4c0.5-0.5,1-1.1,1.6-1.6C15.2,46.1,13.8,45.8,12.4,45.8z"/>
		<path class="st2" d="M297.3,37.9h-2c0,0,0,37.6,0,37.7c0,17.2-14,31.2-31.2,31.2s-31.2-14-31.2-31.2c0-17.2,14-31.2,31.2-31.2
			c8.8,0,16.7,3.6,22.4,9.5V51c-5.9-5.4-13.8-8.7-22.4-8.7c-18.3,0-33.2,14.9-33.2,33.2c0,18.3,14.9,33.2,33.2,33.2
			s33.2-14.9,33.2-33.2C297.3,75.5,297.3,37.9,297.3,37.9z"/>
	</g>
	<g>
		<path class="st3" d="M139.8,113.2h2V87.8c-1.3-3.7-2-7.7-2-11.9V113.2z"/>
		<path class="st3" d="M328.1,45.7c-5.2,0-9.5,4.3-9.5,9.5c0,3.1,1.5,5.8,3.8,7.6c0.6,0.4,1.2,0.8,1.8,1.1c0.2-0.7,0.3-1.3,0.5-2
			c-0.6-0.3-1.2-0.7-1.8-1.2c-1.5-1.4-2.4-3.3-2.4-5.4c0-4.1,3.3-7.4,7.4-7.4c0.8,0,1.7,0.1,2.4,0.4c0.5-0.5,1-1.1,1.6-1.6
			C330.9,46.1,329.5,45.7,328.1,45.7z"/>
		<path class="st3" d="M6.9,63C6.8,63,6.8,63,6.9,63c-0.7,2.5-1,5.2-1,7.9v42.3h2V82.1V70.9c0-0.6,0-1.1,0-1.7
			C8,68,8.1,66.8,8.3,65.6c0.1-0.6,0.2-1.1,0.3-1.6l0,0C8,63.7,7.4,63.4,6.9,63C6.8,63,7.4,63.4,6.9,63z"/>
		<path class="st3" d="M38.8,37.9c-8.7,0-16.6,3.4-22.5,8.8c-0.5,0.5-1.1,1-1.6,1.6c0,0,0,0,0,0c0,0,0,0,0,0c0.7,0.2,1.3,0.6,1.8,1
			l1.5-1.4c5.5-4.9,12.7-7.9,20.7-7.9c17.1,0,31,13.9,31,31v42.3h2V70.9C71.8,52.7,57,37.9,38.8,37.9z"/>
		<path class="st3" d="M301.7,37.9h-2c0,0,0,37.9,0,38.1c-0.2,19.5-16.1,35.2-35.6,35.2c-19.6,0-35.6-16-35.6-35.6
			c0-19.6,16-35.6,35.6-35.6c8.5,0,16.3,3,22.4,7.9v-2.6c-6.3-4.6-14-7.4-22.4-7.4c-20.8,0-37.6,16.9-37.6,37.6
			c0,20.8,16.9,37.6,37.6,37.6c8.4,0,16.1-2.7,22.3-7.4c4.5-3.3,8.2-7.6,10.8-12.5c0.9-1.8,1.8-3.6,2.4-5.5c1.3-3.7,2-7.7,2-11.9
			L301.7,37.9z"/>
	</g>
	<g>
		<path class="st4" d="M177.5,46.7c-9,0-17.1,4.2-22.4,10.7v3.4c4.8-7.3,13-12.1,22.4-12.1c14.8,0,26.8,12,26.8,26.8
			s-12,26.8-26.8,26.8c-14.8,0-26.8-12-26.8-26.8c0-0.1,0-72.8,0-72.8h-2c0,0,0,72.7,0,72.8c0,15.9,12.9,28.8,28.8,28.8
			s28.8-12.9,28.8-28.8C206.3,59.7,193.4,46.7,177.5,46.7z"/>
		<path class="st4" d="M153.1,113.2h2v-7.4c-0.7-0.5-1.4-1.1-2-1.6V113.2z"/>
		<path class="st4" d="M292.8,113.2h-2V102c0.7-0.7,1.4-1.5,2-2.2V113.2z"/>
		<path class="st4" d="M354.5,46.7c-13.3,0-24.2,10.8-24.2,24.1l0,42.3h2l0-42.3c0-12.2,10-22.1,22.2-22.1c6.5,0,12.4,2.8,16.4,7.3
			l1.4-1.5C367.8,49.8,361.5,46.7,354.5,46.7z"/>
		<path class="st4" d="M89.6,46.7c-8.5,0-16.1,4.5-20.4,11.2c0.3,0.8,0.6,1.6,0.9,2.4c3.8-6.9,11.1-11.6,19.5-11.6
			c12.2,0,22.1,9.9,22.1,22.1v42.3h2V70.9C113.7,57.6,102.9,46.7,89.6,46.7z"/>
		<path class="st4" d="M38.8,51.1C28,51.1,19.1,60,19.1,70.9v42.4h2V70.9c0-9.7,8-17.7,17.7-17.7c9.8,0,17.7,7.9,17.7,17.7v42.4h2
			V70.9C58.6,60,49.7,51.1,38.8,51.1z"/>
		<path class="st4" d="M288.5,37.9h-2v27.9c-3.8-8.6-12.4-14.7-22.4-14.7c-13.5,0-24.4,11-24.4,24.4c0,13.5,11,24.4,24.4,24.4
			s24.4-11,24.4-24.4C288.5,75.4,288.5,37.9,288.5,37.9z M264.1,97.9c-12.3,0-22.4-10-22.4-22.4c0-12.3,10-22.4,22.4-22.4
			c12.3,0,22.2,9.9,22.4,22.1c0,0,0,0,0,0c0,0.1,0,0.2,0,0.2C286.5,87.9,276.4,97.9,264.1,97.9z"/>
	</g>
</g>
</svg>
