<svg xmlns="http://www.w3.org/2000/svg" viewBox="0 0 363.02 74.25"><defs><style>.cls-1{fill:#ffe881;}.cls-2{fill:#f8d251;}.cls-3{fill:#f5cd34;}.cls-4{fill:#f2c217;}.cls-5{fill:#fbdd6a;}</style></defs><title>Asset 12</title><g id="Layer_2" data-name="Layer 2"><g id="Layer_1-2" data-name="Layer 1"><path class="cls-1" d="M85.37,13.1a19.51,19.51,0,0,0-18.2,12.56,32.57,32.57,0,0,1,.74,6.84v0a17.44,17.44,0,0,1,34.89.06v41.7h2V32.52A19.45,19.45,0,0,0,85.37,13.1Z"/><path class="cls-2" d="M85.35,4.31A28.14,28.14,0,0,0,63,15.37q.58.93,1.1,1.89a26.15,26.15,0,0,1,47.42,15.21V74.22h2V32.48A28.2,28.2,0,0,0,85.35,4.31Z"/><path class="cls-2" d="M35.41,8.76A23.86,23.86,0,0,0,11.58,32.52v41.7h2V32.52a21.8,21.8,0,0,1,43.6,0v41.7h2V32.52A23.8,23.8,0,0,0,35.41,8.76Z"/><path class="cls-3" d="M85.35.05a32.46,32.46,0,0,0-25,11.72q.66.79,1.27,1.63a30.49,30.49,0,0,1,54.21,19.18V74.22h2V32.57A32.55,32.55,0,0,0,85.35.05Z"/><path class="cls-3" d="M35.39,4.31A28.2,28.2,0,0,0,7.22,32.48V74.22h2V32.48a26.16,26.16,0,1,1,52.32,0V74.22h2V32.48A28.2,28.2,0,0,0,35.39,4.31Z"/><path class="cls-3" d="M9.34,7.85A9.32,9.32,0,0,0,3.84,24.72l.07,0a9.34,9.34,0,0,0,1.76,1h0c.15-.66.32-1.31.51-2h0A7.34,7.34,0,0,1,4.5,22.67l-.06,0a7.31,7.31,0,0,1,7.29-12.35c.5-.53,1-1,1.55-1.53A9.22,9.22,0,0,0,9.34,7.85Z"/><path class="cls-4" d="M3.91,24.76l-.07,0a32.46,32.46,0,0,0-1,7.85V74.22h2V32.57c0-.57,0-1.13,0-1.69a30.61,30.61,0,0,1,.4-3.5q.14-.82.33-1.62h0a9.34,9.34,0,0,1-1.76-1Z"/><path class="cls-4" d="M35.39,0A32.38,32.38,0,0,0,13.28,8.74c-.53.5-1.05,1-1.55,1.53h0l0,0a7.29,7.29,0,0,1,1.79,1l1.46-1.41A30.48,30.48,0,0,1,65.9,32.55V74.2h2V32.55A32.55,32.55,0,0,0,35.39,0Z"/><path class="cls-5" d="M85.37,8.76a23.83,23.83,0,0,0-20.07,11c.33.78.63,1.58.91,2.39a21.79,21.79,0,0,1,40.95,10.35v41.7h2V32.52A23.8,23.8,0,0,0,85.37,8.76Z"/><path class="cls-5" d="M35.41,13.1A19.5,19.5,0,0,0,15.94,32.52v41.7h2V32.52a17.44,17.44,0,0,1,34.89,0v41.7h2V32.52A19.45,19.45,0,0,0,35.41,13.1Z"/><path class="cls-2" d="M249.81,8.76A23.86,23.86,0,0,0,226,32.52v41.7h2V32.52a21.8,21.8,0,0,1,43.6,0v41.7h2V32.52A23.8,23.8,0,0,0,249.81,8.76Z"/><path class="cls-3" d="M249.79,4.31a28.2,28.2,0,0,0-28.17,28.17V74.22h2V32.48a26.16,26.16,0,1,1,52.32,0V74.22h2V32.48A28.2,28.2,0,0,0,249.79,4.31Z"/><path class="cls-3" d="M223.73,7.85a9.32,9.32,0,0,0-5.49,16.86l.07,0a9.34,9.34,0,0,0,1.76,1h0c.15-.66.32-1.31.51-2h0a7.34,7.34,0,0,1-1.68-1.12l-.06,0a7.31,7.31,0,0,1,7.29-12.35c.5-.53,1-1,1.55-1.53A9.22,9.22,0,0,0,223.73,7.85Z"/><path class="cls-4" d="M218.31,24.76l-.07,0a32.46,32.46,0,0,0-1,7.85V74.22h2V32.57c0-.57,0-1.13,0-1.69a30.61,30.61,0,0,1,.4-3.5q.14-.82.33-1.62h0a9.34,9.34,0,0,1-1.76-1Z"/><path class="cls-4" d="M249.79,0a32.38,32.38,0,0,0-22.11,8.71c-.53.5-1.05,1-1.55,1.53h0l0,0a7.29,7.29,0,0,1,1.79,1l1.46-1.41a30.48,30.48,0,0,1,50.84,22.71V74.2h2V32.55A32.55,32.55,0,0,0,249.79,0Z"/><path class="cls-5" d="M249.8,13.1a19.5,19.5,0,0,0-19.47,19.41v41.7h2V32.52a17.44,17.44,0,0,1,34.89,0v41.7h2V32.52A19.45,19.45,0,0,0,249.8,13.1Z"/><path class="cls-2" d="M330.51,65.46A23.86,23.86,0,0,0,354.34,41.7V0h-2V41.7a21.8,21.8,0,0,1-43.6,0V0h-2V41.7A23.8,23.8,0,0,0,330.51,65.46Z"/><path class="cls-3" d="M330.53,69.91A28.2,28.2,0,0,0,358.7,41.74V0h-2V41.74a26.16,26.16,0,1,1-52.32,0V0h-2V41.74A28.2,28.2,0,0,0,330.53,69.91Z"/><path class="cls-4" d="M363,.08h-2V41.73a30.4,30.4,0,0,1-8.72,21.32l-1.37,1.32q-.43.39-.87.76l-.17.15q-1.11.92-2.31,1.73l-.21.14c-.33.22-.66.43-1,.64L346,68l-.9.52-.4.21-.88.45-.43.2-.89.4-.45.19-.9.36-.46.17-.92.31-.47.15-.95.27-.47.12-1,.23-.46.1-1,.18-.44.07-1.08.14-.41,0-1.19.09-.32,0q-.76,0-1.53,0t-1.53,0l-.32,0-1.19-.09-.41,0L326,71.9l-.44-.07-1-.18-.46-.1-1-.23-.47-.12-.95-.27-.47-.15-.92-.31-.46-.17-.9-.36-.45-.19-.89-.4-.43-.2-.88-.45-.4-.21L315,68l-.33-.2c-.34-.21-.67-.42-1-.64l-.21-.14q-1.19-.81-2.31-1.73l-.17-.15q-.44-.37-.87-.76l-1.37-1.32A30.4,30.4,0,0,1,300,41.73V.08h-2V41.73A32.39,32.39,0,0,0,306.85,64h0l.24.23q.61.63,1.25,1.23l.07.07,0,0c.3.28.61.55.92.82l.21.18c.3.26.61.5.92.75l.26.21.91.67.32.23.9.6.38.25.88.53.46.26.85.46.53.27.82.4.61.27.78.33.69.27.74.28.77.26.69.22.85.24.64.17.94.22.59.13,1,.19.53.09,1.15.15.44.05c.44,0,.89.08,1.33.1l.29,0q.81,0,1.64,0h0q.82,0,1.64,0l.29,0c.45,0,.89-.06,1.33-.1l.44-.05,1.15-.15.53-.09,1-.19.59-.13.94-.22.64-.17.85-.24.69-.22.77-.26.74-.28.69-.27.78-.33.61-.27.82-.4.53-.27.85-.46.46-.26.88-.53.38-.25.9-.6.32-.23.91-.67.26-.21c.31-.24.62-.49.92-.75l.21-.18c.31-.27.62-.54.92-.82l0,0,.07-.07q.64-.6,1.25-1.23l.24-.23h0A32.39,32.39,0,0,0,363,41.73Z"/><path class="cls-5" d="M330.51,61.12A19.5,19.5,0,0,0,350,41.7V0h-2V41.7a17.44,17.44,0,0,1-34.89,0V0h-2V41.7A19.45,19.45,0,0,0,330.51,61.12Z"/><polygon class="cls-2" points="193.38 44.67 191.3 44.67 191.29 44.67 193.38 44.67 193.38 44.67"/><path class="cls-2" d="M187.81,34H144.2q-.14,1-.19,2h50.37q0-1-.15-2-.13-1.21-.37-2.39c-.13-.68-.3-1.35-.48-2A28.44,28.44,0,0,0,166,8.74h0a28.44,28.44,0,0,0-27.37,20.85c-.18.66-.35,1.33-.48,2s-.28,1.58-.37,2.39-.12,1.33-.15,2c0,.38,0,.76,0,1.14s0,.8,0,1.19q0,1,.16,2,.13,1.18.36,2.33c.13.68.3,1.35.48,2A28.44,28.44,0,0,0,166,65.52h0a28.39,28.39,0,0,0,24.57-14.21l-1.77-.94A26.38,26.38,0,0,1,166,63.51h0a26.42,26.42,0,0,1-25.28-18.85q-.3-1-.51-2c-.16-.76-.29-1.54-.39-2.33s-.14-1.33-.17-2c0-.4,0-.79,0-1.19s0-.76,0-1.14c0-.68.09-1.35.17-2s.23-1.6.39-2.39.32-1.35.52-2A26.42,26.42,0,0,1,166,10.75h0a26.42,26.42,0,0,1,25.28,18.84q.3,1,.52,2,.25,1.18.39,2.39h-4.39Z"/><polygon class="cls-3" points="197.87 44.67 195.8 44.67 195.8 44.67 197.86 44.67 197.87 44.67"/><path class="cls-3" d="M198.72,36c0-.68-.06-1.35-.13-2s-.19-1.6-.32-2.39-.25-1.35-.41-2A32.78,32.78,0,0,0,166,4.4h0a32.78,32.78,0,0,0-31.85,25.19q-.24,1-.41,2c-.13.79-.25,1.58-.32,2.39s-.1,1.34-.13,2c0,.38,0,.76,0,1.14s0,.79,0,1.19c0,.68.06,1.35.13,2s.19,1.56.32,2.33.25,1.34.41,2A32.78,32.78,0,0,0,166,69.86h0a32.74,32.74,0,0,0,28.41-16.52l-1.79-.95A30.72,30.72,0,0,1,166,67.85h0a30.78,30.78,0,0,1-29.79-23.19c-.17-.66-.31-1.33-.43-2s-.26-1.54-.34-2.33-.11-1.33-.14-2c0-.4,0-.79,0-1.19s0-.76,0-1.14c0-.68.06-1.35.13-2s.21-1.6.35-2.39.26-1.35.43-2A30.78,30.78,0,0,1,166,6.41h0A30.78,30.78,0,0,1,195.8,29.59c.17.66.31,1.33.43,2s.27,1.58.35,2.39.11,1.34.13,2c0,.38,0,.76,0,1.14s0,.8,0,1.19H144q.05,1,.2,2h54.38c.06-.66.1-1.34.13-2,0-.4,0-.79,0-1.19S198.73,36.37,198.72,36Z"/><path class="cls-4" d="M203.06,36q0-1-.11-2c-.07-.8-.15-1.6-.27-2.39s-.22-1.35-.36-2A37.13,37.13,0,0,0,166,.06h0a37.13,37.13,0,0,0-36.3,29.53q-.21,1-.36,2c-.12.79-.2,1.59-.27,2.39s-.09,1.34-.11,2c0,.38,0,.76,0,1.14s0,.79,0,1.19c0,.67.06,1.35.12,2s.16,1.56.28,2.33.22,1.34.35,2a36.9,36.9,0,0,0,6.48,14.45A37.49,37.49,0,0,0,148.52,69.8a36.79,36.79,0,0,0,17.13,4.4h.73a36.79,36.79,0,0,0,17.13-4.4,37,37,0,0,0,14.75-14.42l-1.77-.94a35.07,35.07,0,0,1-30.11,17.74h-.73a35.12,35.12,0,0,1-33.87-27.52c-.15-.66-.28-1.33-.38-2s-.22-1.54-.29-2.33-.1-1.34-.12-2c0-.4,0-.79,0-1.19s0-.76,0-1.14c0-.67.06-1.35.12-2s.17-1.6.29-2.39.24-1.35.39-2A35.12,35.12,0,0,1,166,2.07h0a35.12,35.12,0,0,1,34.24,27.52c.15.66.28,1.33.39,2s.22,1.58.29,2.39.1,1.34.12,2c0,.38,0,.76,0,1.14s0,.79,0,1.19c0,.67-.06,1.35-.12,2s-.17,1.56-.29,2.33h-56q.27,1,.62,2h57c.14-.66.25-1.33.35-2s.21-1.54.28-2.33.09-1.34.12-2c0-.4,0-.79,0-1.19S203.07,36.37,203.06,36Z"/><polygon class="cls-4" points="202.32 44.67 200.25 44.67 200.25 44.67 202.32 44.67 202.32 44.67"/><polygon class="cls-5" points="188.85 44.67 186.71 44.67 186.7 44.67 188.85 44.67 188.85 44.67"/><path class="cls-5" d="M144.22,34a21.85,21.85,0,0,1,.48-2.39h44.72q-.24-1-.57-2A24.09,24.09,0,0,0,166,13.08h0a24.09,24.09,0,0,0-22.84,16.51q-.33,1-.57,2a23.9,23.9,0,0,0-.44,2.39c-.09.66-.15,1.33-.18,2,0,.38,0,.76,0,1.14s0,.8,0,1.19c0,.68.1,1.35.19,2s.25,1.57.43,2.33.35,1.35.57,2A24.09,24.09,0,0,0,166,61.18h0a24,24,0,0,0,20.73-11.91l-1.79-1A22,22,0,0,1,166,59.17h0a22.06,22.06,0,0,1-20.69-14.51q-.36-1-.62-2a21.84,21.84,0,0,1-.47-2.33q-.15-1-.2-2c0-.4-.06-.79-.06-1.19s0-.76.06-1.14Q144.08,35,144.22,34ZM166,15.09h0a22.06,22.06,0,0,1,20.69,14.5H145.33A22.06,22.06,0,0,1,166,15.09Z"/></g></g></svg>