<svg xmlns="http://www.w3.org/2000/svg" viewBox="0 0 198.7 178.52"><defs><style>.cls-1{fill:#fee788;}.cls-2{fill:#fecb4d;}.cls-3{fill:#48626c;}</style></defs><title>new-years-button</title><g id="Layer_2" data-name="Layer 2"><g id="Layer_1-2" data-name="Layer 1"><path class="cls-1" d="M89.09,0V0a89.14,89.14,0,0,0,0,178.27v.23h24V0Z"/><circle class="cls-2" cx="109.56" cy="89.15" r="89.14"/><path class="cls-3" d="M41.48,61.93h5.27a12.51,12.51,0,0,1,1.83.13,4.58,4.58,0,0,1,1.59.52,2.57,2.57,0,0,1,1,1.09,3.14,3.14,0,0,1,.2,1.85,3.36,3.36,0,0,1-1,2,4.44,4.44,0,0,1-1.93,1.12v0a3.66,3.66,0,0,1,1.21.39,2.72,2.72,0,0,1,.87.74,2.66,2.66,0,0,1,.48,1,3.36,3.36,0,0,1,0,1.27A3.88,3.88,0,0,1,50.4,74,4.64,4.64,0,0,1,49,75.2a6.16,6.16,0,0,1-1.79.65,9.08,9.08,0,0,1-1.92.2H39.51ZM43,73.42h2.79a4,4,0,0,0,.75-.08,2.11,2.11,0,0,0,.71-.28,2,2,0,0,0,.56-.52,1.6,1.6,0,0,0,.3-.78A1.18,1.18,0,0,0,48,71a1.23,1.23,0,0,0-.56-.47,2.79,2.79,0,0,0-.79-.22,6,6,0,0,0-.81-.06H43.44Zm.82-5.84h2.25a3.53,3.53,0,0,0,.72-.08,2.59,2.59,0,0,0,.67-.26,1.7,1.7,0,0,0,.52-.48,1.64,1.64,0,0,0,.27-.72,1.21,1.21,0,0,0-.09-.73,1.16,1.16,0,0,0-.43-.45,2.49,2.49,0,0,0-.65-.23,4.62,4.62,0,0,0-.73-.07H44.22Z"/><path class="cls-3" d="M61.39,76.05H58.52l.18-1.31h0a4.78,4.78,0,0,1-.49.56,3.2,3.2,0,0,1-.68.49,3.89,3.89,0,0,1-.86.36,3.4,3.4,0,0,1-1,.14,3.79,3.79,0,0,1-1.8-.35,2.12,2.12,0,0,1-1-1,3.49,3.49,0,0,1-.31-1.46,10.51,10.51,0,0,1,.11-1.81l.76-5.35h3l-.68,4.75c0,.28-.08.57-.1.86a2.25,2.25,0,0,0,.06.83,1.15,1.15,0,0,0,.38.62,1.27,1.27,0,0,0,.85.24,2,2,0,0,0,1-.21,1.8,1.8,0,0,0,.63-.56,2.74,2.74,0,0,0,.37-.79,5.24,5.24,0,0,0,.19-.91l.68-4.83h3Z"/><path class="cls-3" d="M68.85,77.63c-.26.52-.52,1-.75,1.38a4,4,0,0,1-.85,1,3.24,3.24,0,0,1-1.18.62,6.21,6.21,0,0,1-1.77.21,6.46,6.46,0,0,1-2.17-.36L62.87,78a3,3,0,0,0,1.34.3,2.78,2.78,0,0,0,.83-.11,1.55,1.55,0,0,0,.58-.32,2.12,2.12,0,0,0,.42-.51l.4-.7.3-.56-2.87-9.77H67.1l1.59,6.4h0l3-6.4h3.07Z"/><path class="cls-3" d="M88.13,68.75H85.49L85,72a5,5,0,0,0-.06.73,1.41,1.41,0,0,0,.11.57.8.8,0,0,0,.38.37,1.71,1.71,0,0,0,.75.13,6,6,0,0,0,.63,0,1.17,1.17,0,0,0,.61-.23L87.11,76a4.88,4.88,0,0,1-1.07.24,9.87,9.87,0,0,1-1.07.06,5.31,5.31,0,0,1-1.37-.16,2.63,2.63,0,0,1-1-.5,2,2,0,0,1-.62-.91,3,3,0,0,1-.09-1.36l.66-4.61H80.58l.34-2.39h1.92l.4-2.87h3l-.4,2.87h2.63Z"/><path class="cls-3" d="M90,66.36h3l-1.35,9.69h-3Zm.18-3a2,2,0,0,1,.24-.68,2,2,0,0,1,.45-.55,2.21,2.21,0,0,1,.61-.37,1.86,1.86,0,0,1,.7-.14,1.41,1.41,0,0,1,1.14.51,1.48,1.48,0,0,1,.33,1.23,1.77,1.77,0,0,1-.22.67,1.87,1.87,0,0,1-.45.55,2,2,0,0,1-.61.37,1.64,1.64,0,0,1-.69.14A1.45,1.45,0,0,1,91,64.9a1.34,1.34,0,0,1-.5-.37,1.38,1.38,0,0,1-.29-.55A1.65,1.65,0,0,1,90.2,63.31Z"/><path class="cls-3" d="M101.29,69.49a1.41,1.41,0,0,0-.55-.53,1.61,1.61,0,0,0-.82-.21,2.61,2.61,0,0,0-1.86.68,2.94,2.94,0,0,0-.88,1.78A2.27,2.27,0,0,0,97.55,73a2,2,0,0,0,1.67.68,1.82,1.82,0,0,0,.9-.22,3.29,3.29,0,0,0,.69-.52L102.49,75a4.66,4.66,0,0,1-1.8,1,6.21,6.21,0,0,1-1.83.29,5.71,5.71,0,0,1-2.06-.36,4.23,4.23,0,0,1-1.56-1,4,4,0,0,1-.92-1.61,4.78,4.78,0,0,1-.13-2.09,5.62,5.62,0,0,1,.71-2.1,5.84,5.84,0,0,1,1.36-1.6,6,6,0,0,1,1.86-1,6.51,6.51,0,0,1,2.15-.36,5.9,5.9,0,0,1,1.77.29,3.19,3.19,0,0,1,1.51,1Z"/><path class="cls-3" d="M105.54,61h3l-1.29,9.22,3.85-3.83h3.67l-4.47,4.37,3.21,5.32h-3.77l-2.59-4.9h0l-.68,4.9h-3Z"/><path class="cls-3" d="M123.92,74.38a5.72,5.72,0,0,1-2,1.41,5.8,5.8,0,0,1-2.34.5,5.71,5.71,0,0,1-2.06-.36,4.15,4.15,0,0,1-1.56-1A4,4,0,0,1,115,73.3a4.64,4.64,0,0,1-.13-2.09,5.45,5.45,0,0,1,.71-2.1,5.84,5.84,0,0,1,1.36-1.6,6,6,0,0,1,1.86-1,6.51,6.51,0,0,1,2.15-.36,4.44,4.44,0,0,1,1.84.36,3.3,3.3,0,0,1,1.3,1,3.87,3.87,0,0,1,.68,1.6,6.1,6.1,0,0,1,0,2.1l-.14.93h-6.94a2,2,0,0,0,.59,1.37,1.94,1.94,0,0,0,1.41.51,2.41,2.41,0,0,0,1.28-.33,4.23,4.23,0,0,0,1-.85ZM122,70.11a1.58,1.58,0,0,0-.32-1.3,1.52,1.52,0,0,0-1.26-.54,2.48,2.48,0,0,0-.89.16,2.81,2.81,0,0,0-.7.41,2.33,2.33,0,0,0-.78,1.27Z"/><path class="cls-3" d="M133.59,68.75H131L130.5,72a5,5,0,0,0-.06.73,1.26,1.26,0,0,0,.11.57.76.76,0,0,0,.38.37,1.71,1.71,0,0,0,.75.13,5.81,5.81,0,0,0,.62,0,1.13,1.13,0,0,0,.61-.23L132.57,76a4.79,4.79,0,0,1-1.06.24,9.87,9.87,0,0,1-1.07.06,5.34,5.34,0,0,1-1.38-.16,2.7,2.7,0,0,1-1.05-.5,2,2,0,0,1-.61-.91,3,3,0,0,1-.09-1.36l.65-4.61h-1.91l.34-2.39h1.91l.4-2.87h3l-.4,2.87h2.63Z"/><path class="cls-3" d="M140.53,69.21a1.83,1.83,0,0,0-1.63-.82,1.73,1.73,0,0,0-.76.18.76.76,0,0,0-.44.62.46.46,0,0,0,.3.53,5.24,5.24,0,0,0,.9.3l1.16.28a3.67,3.67,0,0,1,1.15.47,2.16,2.16,0,0,1,.81.86,2.5,2.5,0,0,1,.17,1.47,3,3,0,0,1-.62,1.55,4,4,0,0,1-1.19,1,5.31,5.31,0,0,1-1.5.51,8.91,8.91,0,0,1-1.6.15,6.88,6.88,0,0,1-2-.29,3.19,3.19,0,0,1-1.62-1l2.1-2a2.46,2.46,0,0,0,.82.79,2.3,2.3,0,0,0,1.15.27,3,3,0,0,0,1-.15.67.67,0,0,0,.5-.55.52.52,0,0,0-.29-.57,4.22,4.22,0,0,0-.9-.32l-1.18-.28a4.65,4.65,0,0,1-1.15-.44,2.12,2.12,0,0,1-.83-.85,2.29,2.29,0,0,1-.16-1.47,3.27,3.27,0,0,1,.56-1.48,3.77,3.77,0,0,1,1.06-1,4.42,4.42,0,0,1,1.39-.59,6.09,6.09,0,0,1,1.52-.19,6.46,6.46,0,0,1,1.89.28,3,3,0,0,1,1.52,1Z"/><path class="cls-3" d="M151.29,68.75h-2l.34-2.39h2l.24-1.72a8.65,8.65,0,0,1,.34-1.5,3.51,3.51,0,0,1,.71-1.25,3.26,3.26,0,0,1,1.27-.85,5.64,5.64,0,0,1,2-.31c.31,0,.61,0,.9,0a7.36,7.36,0,0,1,.84.14l-.5,2.54a2.37,2.37,0,0,0-.45-.15,2.26,2.26,0,0,0-1.6.25,1.91,1.91,0,0,0-.54,1.27l-.22,1.54h2.21l-.34,2.39h-2.21l-1,7.3h-3Z"/><path class="cls-3" d="M156.93,71.21a5.62,5.62,0,0,1,.71-2.1,6,6,0,0,1,3.22-2.63,6.53,6.53,0,0,1,2.16-.36,5.66,5.66,0,0,1,2,.36,4.21,4.21,0,0,1,1.58,1,4.12,4.12,0,0,1,.93,1.6,5,5,0,0,1,.13,2.1A5.58,5.58,0,0,1,167,73.3a5.91,5.91,0,0,1-3.24,2.63,6.51,6.51,0,0,1-2.15.36,5.75,5.75,0,0,1-2.06-.36,4.23,4.23,0,0,1-1.56-1,4,4,0,0,1-.92-1.61A4.94,4.94,0,0,1,156.93,71.21Zm3,0a2.27,2.27,0,0,0,.37,1.77,2,2,0,0,0,1.67.68,2.61,2.61,0,0,0,1.86-.68,2.85,2.85,0,0,0,.89-1.77,2.21,2.21,0,0,0-.38-1.78,2,2,0,0,0-1.67-.68,2.61,2.61,0,0,0-1.86.68A2.94,2.94,0,0,0,159.92,71.21Z"/><path class="cls-3" d="M170.14,66.36h3l-.22,1.55h0a4.56,4.56,0,0,1,1.32-1.34,3.16,3.16,0,0,1,1.71-.45l.52,0a2.29,2.29,0,0,1,.48.08L176.6,69a5.06,5.06,0,0,0-.62-.15,4.23,4.23,0,0,0-.63,0A3.45,3.45,0,0,0,174,69a2.07,2.07,0,0,0-.86.67,3.17,3.17,0,0,0-.49,1,11.18,11.18,0,0,0-.27,1.31l-.56,4h-3Z"/><path class="cls-3" d="M41.48,85.87h4.23l4.63,9.81h0l1.38-9.81h3.11l-2,14.12H48.82l-4.76-10h0l-1.4,10H39.51Z"/><path class="cls-3" d="M64.78,98.32a5.68,5.68,0,0,1-2,1.41,5.81,5.81,0,0,1-2.35.5,5.66,5.66,0,0,1-2-.36,4.19,4.19,0,0,1-1.57-1,4,4,0,0,1-.91-1.61,4.64,4.64,0,0,1-.13-2.09,5.67,5.67,0,0,1,.7-2.1,6.05,6.05,0,0,1,1.37-1.6,5.92,5.92,0,0,1,1.86-1,6.51,6.51,0,0,1,2.15-.36,4.48,4.48,0,0,1,1.84.36,3.2,3.2,0,0,1,1.29,1,3.88,3.88,0,0,1,.69,1.6,6.11,6.11,0,0,1,0,2.1l-.14.93H58.62a2,2,0,0,0,.59,1.37,1.93,1.93,0,0,0,1.4.51,2.43,2.43,0,0,0,1.29-.33,4.23,4.23,0,0,0,1-.85Zm-1.93-4.27a1.58,1.58,0,0,0-.32-1.3,1.52,1.52,0,0,0-1.26-.54,2.48,2.48,0,0,0-.89.16,2.81,2.81,0,0,0-.7.41,2.3,2.3,0,0,0-.5.58,2,2,0,0,0-.28.69Z"/><path class="cls-3" d="M67,90.3h3.19l1.12,6.08h0L73.9,90.3h3.27l.94,6.08h0l2.67-6.08h3L79.05,100h-3L75,93.55h0L72.25,100h-3Z"/><path class="cls-3" d="M94.05,94l-4.17-8.1h3.87L96,91.16l3.91-5.29h3.69L97.16,94l-.84,6H93.21Z"/><path class="cls-3" d="M109.85,98.32a6,6,0,0,1-4.35,1.91,5.66,5.66,0,0,1-2-.36,4.19,4.19,0,0,1-1.57-1,4.14,4.14,0,0,1-.92-1.61,4.94,4.94,0,0,1-.13-2.09,5.88,5.88,0,0,1,3.93-4.73,6.57,6.57,0,0,1,2.16-.36,4.39,4.39,0,0,1,1.83.36,3.16,3.16,0,0,1,1.3,1,4,4,0,0,1,.69,1.6,6.11,6.11,0,0,1,0,2.1l-.14.93h-6.94a2,2,0,0,0,.59,1.37,1.93,1.93,0,0,0,1.4.51,2.48,2.48,0,0,0,1.29-.33,4.43,4.43,0,0,0,1-.85Zm-1.93-4.27a1.58,1.58,0,0,0-.32-1.3,1.55,1.55,0,0,0-1.26-.54,2.57,2.57,0,0,0-.9.16,3,3,0,0,0-.7.41,2.52,2.52,0,0,0-.5.58,2.57,2.57,0,0,0-.28.69Z"/><path class="cls-3" d="M118.15,98.78h0a3.29,3.29,0,0,1-1.48,1.11,4.82,4.82,0,0,1-1.79.34,4.09,4.09,0,0,1-1.28-.19,2.78,2.78,0,0,1-1-.56,2.44,2.44,0,0,1-.63-.94,2.88,2.88,0,0,1-.1-1.3,3.09,3.09,0,0,1,1-1.94,4.86,4.86,0,0,1,1.82-1,8.82,8.82,0,0,1,2.19-.39c.77,0,1.46-.06,2.09-.06a1.44,1.44,0,0,0-.4-1.27,1.8,1.8,0,0,0-1.28-.47,3.24,3.24,0,0,0-1.38.31,4.5,4.5,0,0,0-1.21.85l-1.36-1.63a6.52,6.52,0,0,1,2.11-1.17,7.34,7.34,0,0,1,2.36-.39,5.64,5.64,0,0,1,2.12.33,2.57,2.57,0,0,1,1.23,1,3.23,3.23,0,0,1,.49,1.56,9.64,9.64,0,0,1-.11,2.15l-.68,4.92H118Zm-.32-3-.85,0a5.65,5.65,0,0,0-1,.17,2.81,2.81,0,0,0-.85.42,1.1,1.1,0,0,0-.43.78.72.72,0,0,0,.06.47.88.88,0,0,0,.28.33,1.14,1.14,0,0,0,.43.2,2,2,0,0,0,.49.06,3.13,3.13,0,0,0,.86-.12,2.75,2.75,0,0,0,.78-.34,2.1,2.1,0,0,0,.59-.56,1.72,1.72,0,0,0,.3-.8l.08-.63Z"/><path class="cls-3" d="M124,90.3h3l-.22,1.55h0a4.66,4.66,0,0,1,1.31-1.34,3.17,3.17,0,0,1,1.72-.45l.52,0a2.41,2.41,0,0,1,.48.08l-.38,2.73-.62-.15a4.26,4.26,0,0,0-.64,0,3.4,3.4,0,0,0-1.39.24,2.07,2.07,0,0,0-.86.67,3,3,0,0,0-.49,1,11.18,11.18,0,0,0-.27,1.31l-.56,4h-3Z"/><path class="cls-3" d="M134.19,91.5h-2.56l2.28-5.63h2.87Z"/><path class="cls-3" d="M141.61,93.15a1.84,1.84,0,0,0-1.64-.82,1.72,1.72,0,0,0-.75.18.75.75,0,0,0-.44.62.46.46,0,0,0,.3.53,5.41,5.41,0,0,0,.89.3l1.17.28a4,4,0,0,1,1.15.47,2.27,2.27,0,0,1,.81.87,2.45,2.45,0,0,1,.17,1.46,3,3,0,0,1-.62,1.55,4,4,0,0,1-1.19,1,5.31,5.31,0,0,1-1.5.51,8.91,8.91,0,0,1-1.6.15,7,7,0,0,1-2-.29,3.2,3.2,0,0,1-1.61-1l2.09-2a2.58,2.58,0,0,0,.83.79,2.28,2.28,0,0,0,1.15.27,3,3,0,0,0,1-.15.66.66,0,0,0,.49-.55.51.51,0,0,0-.29-.57,4.11,4.11,0,0,0-.89-.32l-1.18-.28a4.73,4.73,0,0,1-1.16-.44,2.19,2.19,0,0,1-.83-.85,2.36,2.36,0,0,1-.15-1.47,3.38,3.38,0,0,1,.55-1.48,3.81,3.81,0,0,1,1.07-1,4.66,4.66,0,0,1,1.39-.59,6,6,0,0,1,1.51-.19,6.53,6.53,0,0,1,1.9.28,3,3,0,0,1,1.52,1Z"/><path class="cls-3" d="M152.78,85.87h9.6l-.4,2.87H155.5l-.38,2.64h6.12l-.4,2.87h-6.12l-.4,2.87h6.84l-.4,2.87h-9.95Z"/><path class="cls-3" d="M163.22,90.3h3.23L168,96.88h0l3.22-6.58h3L169,100h-3.17Z"/><path class="cls-3" d="M183.37,98.32a5.72,5.72,0,0,1-2,1.41,5.8,5.8,0,0,1-2.34.5,5.71,5.71,0,0,1-2.06-.36,4.15,4.15,0,0,1-1.56-1,4,4,0,0,1-.92-1.61,4.78,4.78,0,0,1-.13-2.09,5.5,5.5,0,0,1,.71-2.1,5.84,5.84,0,0,1,1.36-1.6,6,6,0,0,1,1.86-1,6.51,6.51,0,0,1,2.15-.36,4.44,4.44,0,0,1,1.84.36,3.2,3.2,0,0,1,1.29,1,3.75,3.75,0,0,1,.69,1.6,6.11,6.11,0,0,1,0,2.1l-.14.93H177.2a2,2,0,0,0,.59,1.37,1.94,1.94,0,0,0,1.41.51,2.41,2.41,0,0,0,1.28-.33,4.23,4.23,0,0,0,1-.85Zm-1.94-4.27a1.58,1.58,0,0,0-.32-1.3,1.52,1.52,0,0,0-1.26-.54,2.48,2.48,0,0,0-.89.16,2.81,2.81,0,0,0-.7.41,2.33,2.33,0,0,0-.78,1.27Z"/><path class="cls-3" d="M41.48,109.81h5.25a10.08,10.08,0,0,1,2,.2,3.94,3.94,0,0,1,1.61.69,2.9,2.9,0,0,1,1,1.31,4.23,4.23,0,0,1,.14,2.09,5.49,5.49,0,0,1-.7,2.07,4.25,4.25,0,0,1-1.29,1.34,5.15,5.15,0,0,1-1.75.71,10.13,10.13,0,0,1-2.11.21H43.38l-.76,5.5H39.51Zm2.28,6h2.07a3.74,3.74,0,0,0,.82-.08,2.6,2.6,0,0,0,.74-.26,1.91,1.91,0,0,0,.58-.52,1.75,1.75,0,0,0,.3-.83,1.27,1.27,0,0,0-.13-.87,1.44,1.44,0,0,0-.58-.51,2.73,2.73,0,0,0-.84-.23c-.31,0-.62,0-.91,0H44.22Z"/><path class="cls-3" d="M57.94,122.72h0a3.32,3.32,0,0,1-1.47,1.11,4.91,4.91,0,0,1-1.8.34,4.13,4.13,0,0,1-1.28-.19,2.66,2.66,0,0,1-1-.56,2.23,2.23,0,0,1-.63-.94,2.62,2.62,0,0,1-.1-1.3,3.06,3.06,0,0,1,.94-1.94,4.93,4.93,0,0,1,1.82-1,8.82,8.82,0,0,1,2.19-.39c.77,0,1.46-.06,2.09-.06a1.4,1.4,0,0,0-.4-1.27A1.8,1.8,0,0,0,57,116a3.24,3.24,0,0,0-1.38.31,4.5,4.5,0,0,0-1.21.85L53,115.55a6.69,6.69,0,0,1,2.11-1.16,7.39,7.39,0,0,1,2.36-.39,5.74,5.74,0,0,1,2.13.33,2.54,2.54,0,0,1,1.22,1,3.13,3.13,0,0,1,.49,1.56,9.64,9.64,0,0,1-.11,2.15l-.67,4.92H57.78Zm-.32-3-.85,0a4.77,4.77,0,0,0-1,.17,2.87,2.87,0,0,0-.86.42,1.1,1.1,0,0,0-.43.78.72.72,0,0,0,.06.47,1,1,0,0,0,.28.33,1.14,1.14,0,0,0,.43.2,2.05,2.05,0,0,0,.49.06,3.26,3.26,0,0,0,.87-.12,2.82,2.82,0,0,0,.77-.34,2,2,0,0,0,.59-.56,1.76,1.76,0,0,0,.3-.8l.08-.64Z"/><path class="cls-3" d="M63.77,114.24h3l-.22,1.55h0a4.56,4.56,0,0,1,1.32-1.34,3.16,3.16,0,0,1,1.71-.45l.52,0a2.41,2.41,0,0,1,.48.08l-.38,2.73a5.06,5.06,0,0,0-.62-.15,4.26,4.26,0,0,0-.64-.05,3.43,3.43,0,0,0-1.39.24,2.07,2.07,0,0,0-.86.67,3.17,3.17,0,0,0-.49,1,11.18,11.18,0,0,0-.27,1.31l-.56,4.05h-3Z"/><path class="cls-3" d="M78.15,116.63H75.52l-.46,3.23a5,5,0,0,0-.06.73,1.41,1.41,0,0,0,.11.57.76.76,0,0,0,.38.37,1.71,1.71,0,0,0,.75.13,6,6,0,0,0,.62,0,1.13,1.13,0,0,0,.61-.23l-.34,2.49a4.79,4.79,0,0,1-1.06.24,10,10,0,0,1-1.07.06,5.34,5.34,0,0,1-1.38-.16,2.7,2.7,0,0,1-1.05-.5,2,2,0,0,1-.61-.91,3,3,0,0,1-.09-1.36l.65-4.61H70.61l.34-2.39h1.91l.4-2.87h3l-.4,2.87h2.63Z"/><path class="cls-3" d="M84,125.51c-.27.52-.52,1-.76,1.38a4,4,0,0,1-.85,1,3.24,3.24,0,0,1-1.18.62,6.13,6.13,0,0,1-1.76.21,6.52,6.52,0,0,1-2.18-.36l.74-2.45a3,3,0,0,0,1.34.3,2.9,2.9,0,0,0,.84-.11,1.59,1.59,0,0,0,.57-.32,2.12,2.12,0,0,0,.42-.51c.12-.2.26-.43.4-.7l.3-.56L79,114.24h3.23l1.6,6.4h0l3-6.4H90Z"/><path class="cls-3" d="M91.52,122.22a2.13,2.13,0,0,1,.25-.72,2.08,2.08,0,0,1,.47-.59,2.23,2.23,0,0,1,.63-.39,2.11,2.11,0,0,1,.74-.14,1.52,1.52,0,0,1,1.22.54,1.64,1.64,0,0,1,.36,1.3,2.37,2.37,0,0,1-.25.72,2.25,2.25,0,0,1-.48.58,2.12,2.12,0,0,1-.64.39,1.79,1.79,0,0,1-.73.14,1.65,1.65,0,0,1-.7-.14,1.35,1.35,0,0,1-.52-.39,1.48,1.48,0,0,1-.31-.58A1.58,1.58,0,0,1,91.52,122.22Zm3.73-3h-3l1.33-9.46h3Z"/></g></g></svg>