<svg xmlns="http://www.w3.org/2000/svg" viewBox="0 0 133.77 133.77"><defs><style>.cls-1{fill:#031191;}.cls-2{fill:#f7d151;}</style></defs><title>Asset 10</title><g id="Layer_2" data-name="Layer 2"><g id="Layer_1-2" data-name="Layer 1"><polygon class="cls-1" points="133.77 0 133.77 133.77 0 133.77 133.77 0"/><path class="cls-2" d="M70.65,106.34a4,4,0,0,0-1.5.12,3.3,3.3,0,0,0-1.46.9,3.18,3.18,0,0,0-.86,1.42,1.25,1.25,0,0,0,.33,1.29,1.3,1.3,0,0,0,1,.42,3.09,3.09,0,0,0,1.09-.23,5.37,5.37,0,0,0,1.06-.56l.88-.59a12.16,12.16,0,0,1,1.46-.77,4.4,4.4,0,0,1,1.44-.37,3.27,3.27,0,0,1,1.39.21,3.9,3.9,0,0,1,1.36.93,3.81,3.81,0,0,1,1.06,1.75,4.17,4.17,0,0,1,.05,1.86,5.37,5.37,0,0,1-.73,1.79,8.89,8.89,0,0,1-1.26,1.59,8,8,0,0,1-2.49,1.75,5.41,5.41,0,0,1-3,.28l.25-2.54a8.12,8.12,0,0,0,1.8-.21,3.52,3.52,0,0,0,1.7-1,5,5,0,0,0,.63-.78,3,3,0,0,0,.41-.86,1.94,1.94,0,0,0,.06-.84,1.25,1.25,0,0,0-.37-.72,1.33,1.33,0,0,0-.93-.42,2.65,2.65,0,0,0-1,.19,6.46,6.46,0,0,0-1,.51l-.86.55q-.74.45-1.46.8a4.85,4.85,0,0,1-1.44.45,3.19,3.19,0,0,1-1.44-.12,3.54,3.54,0,0,1-1.42-.92,3.74,3.74,0,0,1-1-1.64,4,4,0,0,1-.09-1.77,5.32,5.32,0,0,1,.64-1.74,7.09,7.09,0,0,1,1.16-1.53A7,7,0,0,1,68.33,104a4.24,4.24,0,0,1,2.67-.21Z"/><path class="cls-2" d="M79.28,103.9a3.45,3.45,0,0,0,1.44.88,4.06,4.06,0,0,0,1.62.16,4.73,4.73,0,0,0,1.62-.47,5.29,5.29,0,0,0,1.44-1,3.89,3.89,0,0,0,1.1-1.9,6.81,6.81,0,0,0,.11-2.22L89.06,99a7.26,7.26,0,0,1-2.32,6.29A7.57,7.57,0,0,1,84.28,107a6.39,6.39,0,0,1-2.66.5,6.74,6.74,0,0,1-2.61-.63,8.09,8.09,0,0,1-2.37-1.67,7.51,7.51,0,0,1-1.64-2.4,7.08,7.08,0,0,1-.57-2.67,6.73,6.73,0,0,1,.51-2.67,7.23,7.23,0,0,1,1.62-2.4,6.79,6.79,0,0,1,2.64-1.73A6.1,6.1,0,0,1,81.84,93a6.61,6.61,0,0,1,2.47.81,9.71,9.71,0,0,1,2.11,1.6l.66.66Zm4.35-7.3a5.5,5.5,0,0,0-1.32-.93,3.52,3.52,0,0,0-1.42-.37,3.4,3.4,0,0,0-1.47.28,4.51,4.51,0,0,0-1.43,1,4.19,4.19,0,0,0-1,1.5,4.25,4.25,0,0,0-.29,1.62,4.36,4.36,0,0,0,.31,1.52,3.55,3.55,0,0,0,.78,1.21Z"/><path class="cls-2" d="M84,88.15l1.85-1.85,1.5,1.5,0,0a3.85,3.85,0,0,1-.05-2.47,5.68,5.68,0,0,1,1.51-2.47,6,6,0,0,1,1.56-1.13,4.27,4.27,0,0,1,1.79-.46,4.53,4.53,0,0,1,1.93.39A6.26,6.26,0,0,1,96,83l6.25,6.25-1.85,1.85L94.7,85.36a4.58,4.58,0,0,0-1.34-1,3,3,0,0,0-1.27-.29,2.61,2.61,0,0,0-1.14.28,3.69,3.69,0,0,0-1,.7,4.25,4.25,0,0,0-.88,1.25,3.16,3.16,0,0,0-.28,1.45,3.9,3.9,0,0,0,.44,1.59A6.54,6.54,0,0,0,90.52,91l5,5-1.85,1.85Z"/><path class="cls-2" d="M115,76.53l-1.85,1.85L111.78,77l0,0a5,5,0,0,1-.26,2.68A6.42,6.42,0,0,1,110,82a7.28,7.28,0,0,1-2.43,1.65,6.38,6.38,0,0,1-2.65.47,7,7,0,0,1-2.61-.63A8,8,0,0,1,100,81.88a8.09,8.09,0,0,1-1.67-2.37,6.75,6.75,0,0,1-.63-2.61,6.45,6.45,0,0,1,.48-2.63,7.28,7.28,0,0,1,1.65-2.43,6.37,6.37,0,0,1,2.41-1.53,4.77,4.77,0,0,1,2.61-.22l0,0-7.18-7.18L99.52,61Zm-6.52,3.57a4.75,4.75,0,0,0,1.08-1.59,4.16,4.16,0,0,0,.31-1.7,4.35,4.35,0,0,0-.43-1.7,6,6,0,0,0-2.73-2.73,4.35,4.35,0,0,0-1.7-.43,4.16,4.16,0,0,0-1.7.31,5.07,5.07,0,0,0-2.67,2.67,4.16,4.16,0,0,0-.31,1.7,4.35,4.35,0,0,0,.43,1.7A6,6,0,0,0,103.51,81a4.33,4.33,0,0,0,1.7.43,4.17,4.17,0,0,0,1.7-.31A4.74,4.74,0,0,0,108.5,80.09Z"/></g></g></svg>